<?xml version="1.0" standalone="no"?>
<!DOCTYPE svg PUBLIC "-//W3C//DTD SVG 1.1//EN" "http://www.w3.org/Graphics/SVG/1.1/DTD/svg11.dtd" >
<svg xmlns="http://www.w3.org/2000/svg">
<metadata></metadata>
<defs>
<font id="asapregular" horiz-adv-x="655" >
<font-face units-per-em="2048" ascent="1638" descent="-410" />
<missing-glyph horiz-adv-x="491" />
<glyph unicode="&#xfb01;" horiz-adv-x="1153" d="M98 985v25q0 61 41 61h82v195q0 70 18 123t45 82t64.5 47.5t69.5 24t67 5.5q150 0 150 -61q0 -21 -12 -58.5t-31 -37.5q-4 0 -28.5 5t-59.5 5q-53 0 -82 -30t-29 -122v-178h178q41 0 41 -61v-25q0 -61 -41 -61h-178v-883q0 -45 -82 -45h-8q-82 0 -82 45v883h-82 q-41 0 -41 61zM788 1374v121q0 45 82 45h25q82 0 82 -45v-121q0 -45 -82 -45h-25q-82 0 -82 45zM797 41v989q0 45 82 45h8q82 0 82 -45v-989q0 -45 -82 -45h-8q-82 0 -82 45z" />
<glyph unicode="&#xfb02;" horiz-adv-x="1210" d="M98 985v25q0 61 41 61h82v195q0 70 18 123t45 82t64.5 47.5t69.5 24t67 5.5q150 0 150 -61q0 -21 -12 -58.5t-31 -37.5q-4 0 -28.5 5t-59.5 5q-53 0 -82 -30t-29 -122v-178h178q41 0 41 -61v-25q0 -61 -41 -61h-178v-883q0 -45 -82 -45h-8q-82 0 -82 45v883h-82 q-41 0 -41 61zM778 270v1225q0 45 82 45h8q82 0 82 -45v-1208q0 -152 111 -152q35 0 59.5 5t28.5 5q19 0 31 -37.5t12 -58.5q0 -61 -150 -61q-34 0 -67 6t-70 25t-64 48.5t-45 82t-18 120.5z" />
<glyph horiz-adv-x="0" />
<glyph horiz-adv-x="682" />
<glyph unicode="&#xd;" horiz-adv-x="491" />
<glyph unicode=" "  horiz-adv-x="491" />
<glyph unicode="&#x09;" horiz-adv-x="491" />
<glyph unicode="&#xa0;" horiz-adv-x="491" />
<glyph unicode="!" horiz-adv-x="602" d="M205 41v135q0 45 82 45h35q81 0 81 -45v-135q0 -45 -81 -45h-35q-82 0 -82 45zM229 459v934q0 45 82 45h41q80 0 80 -45l-55 -934q-3 -45 -64 -45h-22q-62 0 -62 45z" />
<glyph unicode="&#x22;" horiz-adv-x="653" d="M102 1368v25q0 45 82 45h21q82 0 82 -45q0 -11 -47 -402q-6 -24 -45 -24h-2q-40 0 -46 24zM365 1368v25q0 45 81 45h21q82 0 82 -45q0 -11 -47 -402q-6 -24 -45 -24h-2q-39 0 -45 24z" />
<glyph unicode="#" horiz-adv-x="1093" d="M27 463v35q0 61 41 61h186l53 301h-166q-41 0 -41 62v34q0 62 41 62h193l63 342q3 25 19.5 35t70.5 10h9q57 0 57 -31l-68 -356h244l62 342q3 25 19.5 35t70.5 10h10q57 0 57 -31l-63 -356h139q41 0 41 -62v-34q0 -62 -41 -62h-170l-51 -301h155q41 0 41 -61v-35 q0 -62 -41 -62h-188l-63 -360q-5 -24 -22.5 -34.5t-66.5 -10.5h-8q-30 0 -43.5 7.5t-13.5 27.5q0 10 65 370h-241l-66 -360q-5 -25 -21 -35t-67 -10h-8q-30 0 -43.5 7.5t-13.5 27.5q0 10 65 370h-155q-41 0 -41 62zM408 559h241l53 301h-241z" />
<glyph unicode="$" horiz-adv-x="1015" d="M72 137q0 25 27 68t44 43q7 0 35.5 -17t65.5 -37.5t101 -38.5t132 -20v529q-148 58 -208 95q-149 92 -168 256q-3 26 -3 54q0 150 102.5 248t276.5 117v86q0 32 41 32t41 -32v-82q62 -1 135.5 -15.5t131 -42t57.5 -59.5q0 -24 -25.5 -66.5t-40.5 -42.5q-10 0 -43 18.5 t-90 38t-125 21.5v-477q152 -55 216 -96q161 -101 174 -290q1 -17 1 -36q0 -174 -105 -280t-286 -121v-103q0 -32 -41 -32t-41 32v101q-162 4 -283.5 54t-121.5 95zM285 1061q0 -81 49 -129.5t143 -87.5v440q-90 -15 -141 -72t-51 -151zM559 141q92 18 148.5 85t56.5 165 q0 89 -53.5 143t-151.5 97v-490z" />
<glyph unicode="%" horiz-adv-x="1566" d="M123 1110q0 336 280 336q42 0 78.5 -8t75 -31t65.5 -59t44.5 -97t17.5 -141q0 -79 -18 -139.5t-45.5 -95.5t-66 -57.5t-74.5 -30t-77 -7.5q-42 0 -78.5 7.5t-74.5 30t-65 58t-44.5 95.5t-17.5 139zM258 1110q0 -44 4.5 -76t18 -67.5t44.5 -54.5t78 -19q150 0 150 217 q0 35 -2 61t-11 59t-24 54t-44 36t-69 15q-39 0 -67 -15t-42.5 -36t-23 -54t-10.5 -59t-2 -61zM330 4q0 10 8 21l764 1382q20 39 82 39h10q49 0 49 -19q0 -4 -8 -20l-764 -1382q-20 -39 -82 -39h-10q-49 0 -49 18zM883 319q0 336 280 336q42 0 78.5 -8t75 -31t65.5 -59 t44.5 -97t17.5 -141q0 -79 -18 -139t-45.5 -95.5t-66 -57.5t-74.5 -29.5t-77 -7.5q-42 0 -78.5 7.5t-74.5 29.5t-65 57.5t-44.5 95.5t-17.5 139zM1018 319q0 -44 4.5 -76t18 -67.5t44.5 -54.5t78 -19q150 0 150 217q0 35 -2 61t-11 59t-24 54.5t-44 36.5t-69 15 q-48 0 -79 -20.5t-44.5 -58t-17.5 -70t-4 -77.5z" />
<glyph unicode="&#x26;" horiz-adv-x="1277" d="M102 416q0 150 77.5 249.5t180.5 127.5v8q-92 36 -151 114.5t-59 186.5q0 167 113.5 255.5t299.5 88.5q29 0 56.5 -3t55.5 -9.5t45 -20.5t17 -33t-12 -59.5t-33 -40.5q-2 0 -44 9t-81 9q-61 0 -107 -15.5t-71.5 -38t-41.5 -53.5t-20.5 -56t-4.5 -52q0 -41 15.5 -82 t46.5 -79t86 -62t126 -24h242l24 215q3 45 66 45h20q62 0 62 -45v-215h172q41 0 41 -62v-24q0 -62 -41 -62h-172v-401q0 -152 110 -152q35 0 59.5 5t28.5 5q19 0 31 -37.5t12 -58.5q0 -61 -149 -61q-139 0 -209 88q-146 -88 -334 -88q-64 0 -126 14t-122.5 46.5t-106.5 80.5 t-74 122t-28 165zM281 418q0 -79 28 -137.5t74 -88.5t93.5 -43.5t98.5 -13.5q130 0 267 76q-4 36 -4 59v418h-250q-149 0 -228 -61t-79 -209z" />
<glyph unicode="'" horiz-adv-x="374" d="M102 1368v25q0 45 82 45h21q82 0 82 -45q0 -11 -47 -402q-6 -24 -45 -24h-2q-40 0 -46 24z" />
<glyph unicode="(" horiz-adv-x="616" d="M113 586q0 310 101.5 574t274.5 423q21 21 43 21q20 0 41 -16t21 -36t-19 -45q-139 -164 -217.5 -404.5t-78.5 -516.5q0 -275 78.5 -515.5t215.5 -406.5q19 -22 19 -41q0 -17 -17.5 -37t-39.5 -20q-24 0 -46 22q-173 159 -274.5 423.5t-101.5 574.5z" />
<glyph unicode=")" horiz-adv-x="616" d="M18 -379q0 12 15 31q142 164 223.5 408.5t81.5 525.5q0 275 -78.5 515t-216.5 406q-18 21 -18 41q0 17 17.5 37.5t39.5 20.5t45 -23q173 -160 275 -423.5t102 -573.5t-102 -574t-275 -424q-20 -20 -43 -20q-22 0 -44 17.5t-22 35.5z" />
<glyph unicode="*" horiz-adv-x="763" d="M72 1214q0 22 11.5 36t25.5 14q12 0 18 -2l203 -66v215q0 22 9.5 31.5t31.5 9.5t31.5 -9.5t9.5 -31.5v-215l202 66q6 2 19 2q14 0 25.5 -12.5t11.5 -34.5q0 -24 -29 -33l-203 -66l148 -203q10 -17 10 -26q0 -13 -15.5 -27t-29.5 -14q-19 0 -31 18l-149 207l-150 -207 q-15 -18 -31 -18q-15 0 -30 13.5t-15 27.5q0 12 11 26l145 203l-201 66q-28 8 -28 30z" />
<glyph unicode="+" horiz-adv-x="1146" d="M98 457v14q0 70 41 70h367v366q0 41 61 41h15q61 0 61 -41v-366h365q41 0 41 -62v-14q0 -62 -41 -62h-365v-366q0 -41 -61 -41h-15q-61 0 -61 41v366h-367q-23 0 -32 11.5t-9 42.5z" />
<glyph unicode="," horiz-adv-x="405" d="M25 -207q0 13 18 49q70 140 70 314q0 30 21 47.5t61 17.5h18q38 0 60 -15.5t22 -41.5q0 -87 -23 -165.5t-57 -128.5t-69 -79t-62 -29q-59 0 -59 31z" />
<glyph unicode="-" d="M90 532v21q0 61 41 61h387q41 0 41 -61v-21q0 -61 -41 -61h-387q-41 0 -41 61z" />
<glyph unicode="." horiz-adv-x="405" d="M104 41v135q0 45 82 45h35q82 0 82 -45v-135q0 -45 -82 -45h-35q-82 0 -82 45z" />
<glyph unicode="/" horiz-adv-x="757" d="M-20 -115q0 16 6 31l635 1477q20 47 71 47h8q50 0 50 -41q0 -13 -7 -31l-634 -1477q-20 -47 -68 -47h-8q-53 0 -53 41z" />
<glyph unicode="0" horiz-adv-x="1095" d="M80 717q0 185 37.5 328t103 229t147.5 129t177 43q96 0 178.5 -43t148.5 -129t104 -229t38 -328t-38 -328t-104 -229t-148.5 -129t-178.5 -43q-95 0 -177 43t-147.5 129t-103 229t-37.5 328zM254 717q0 -124 16.5 -224t43.5 -166t65 -110t79 -63t87 -19t87.5 19t80 63 t66.5 109.5t44.5 166t16.5 224.5q0 154 -25 270t-68 182t-93.5 97.5t-108.5 31.5t-108 -31.5t-92 -97.5t-66.5 -182t-24.5 -270z" />
<glyph unicode="1" horiz-adv-x="1095" d="M82 1294q0 30 37 39l475 105q24 0 43.5 -12.5t19.5 -30.5v-1248h304q22 0 31 -14.5t9 -46.5v-25q0 -32 -9 -46.5t-31 -14.5h-832q-41 0 -41 61v25q0 61 41 61h356v1104l-362 -61q-20 0 -30.5 34.5t-10.5 69.5z" />
<glyph unicode="2" horiz-adv-x="1095" d="M104 90q0 26 9 35l528 663q92 121 115.5 174.5t23.5 122.5q0 98 -69 155.5t-187 57.5q-64 0 -121 -16t-89.5 -36t-59.5 -36t-37 -16q-15 0 -40 39.5t-25 62.5q0 40 67 76t151 55t150 19q201 0 318.5 -93.5t117.5 -254.5q0 -111 -37 -193q-43 -94 -204 -296 q-60 -75 -227 -279l-1 -2l-149 -183h590q41 0 41 -61v-23q0 -61 -41 -61h-783q-18 0 -29.5 29t-11.5 61z" />
<glyph unicode="3" horiz-adv-x="1095" d="M92 104q0 28 27 65.5t45 37.5q12 0 56 -18t115.5 -36t151.5 -18q40 0 78.5 7.5t78.5 28t70 51.5t49 81.5t19 114.5q0 148 -79 209t-228 61h-67q-41 0 -41 62v22q0 62 41 62h59q60 0 109 18.5t78.5 47.5t49.5 65.5t27.5 70.5t7.5 66q0 33 -10.5 64t-35.5 62.5t-75.5 50.5 t-121.5 19q-82 0 -147.5 -17t-101.5 -33.5t-46 -16.5q-17 0 -42.5 41t-25.5 65q0 42 129.5 75.5t237.5 33.5q189 0 301 -92.5t112 -270.5q0 -100 -60.5 -173t-150.5 -109v-8q103 -28 181 -127.5t78 -249.5q0 -91 -28 -165t-74 -122t-106.5 -80.5t-122.5 -46.5t-126 -14 q-171 0 -291.5 37.5t-120.5 78.5z" />
<glyph unicode="4" horiz-adv-x="1095" d="M37 446q0 19 4 23l674 940q23 29 69 29h33q62 0 62 -45v-904h137q41 0 41 -61v-25q0 -61 -41 -61h-137v-301q0 -45 -62 -45h-47q-61 0 -61 45v301h-623q-17 0 -33 36.5t-16 67.5zM240 489h469v652l-9 4z" />
<glyph unicode="5" horiz-adv-x="1095" d="M96 111q0 28 27 65t45 37q12 0 53.5 -19.5t109.5 -39t146 -19.5q134 0 226 78.5t92 222.5q0 137 -94.5 209t-274.5 72h-174q-33 0 -45 14t-12 47l34 594q3 62 66 62h545q41 0 41 -62v-24q0 -62 -41 -62h-445l-26 -422h106q71 0 137 -12t132.5 -43t116 -78.5t80 -123 t30.5 -171.5q0 -103 -29.5 -183t-77 -129t-113 -80.5t-132 -43.5t-140.5 -12q-159 0 -271 40.5t-112 82.5z" />
<glyph unicode="6" horiz-adv-x="1095" d="M104 506q0 122 29.5 237.5t78.5 206.5t111 171t127.5 137t127.5 98.5t112 61.5t80 20q28 0 48 -41t20 -68q0 -15 -17 -22q-202 -83 -328 -224.5t-178 -320.5q114 67 277 67q167 0 279 -114t112 -299q0 -191 -126 -308.5t-316 -117.5q-216 0 -326.5 134t-110.5 382z M276 489q0 -103 24 -175.5t66 -109t87 -52t98 -15.5q44 0 87.5 16.5t82.5 48t63.5 85.5t24.5 121q0 140 -77.5 207t-190.5 67q-135 0 -256 -70q-9 -92 -9 -123z" />
<glyph unicode="7" horiz-adv-x="1095" d="M113 1348v24q0 62 41 62h809q12 0 26.5 -37t14.5 -68q0 -7 -5 -22l-606 -1278q-17 -33 -82 -33h-24q-46 0 -67 8t-21 29q0 4 8 24l592 1229h-645q-41 0 -41 62z" />
<glyph unicode="8" horiz-adv-x="1095" d="M104 414q0 78 17 139t50.5 103t71 70t89.5 52q-170 101 -170 314q0 168 110 261t279 93t281 -93t112 -261q0 -221 -199 -312q56 -25 95.5 -52t76.5 -68.5t55.5 -103.5t18.5 -142q0 -107 -34.5 -189.5t-95.5 -133.5t-140.5 -77t-173.5 -26t-173.5 26t-140 77t-95 133.5 t-34.5 189.5zM281 414q0 -134 75.5 -206.5t190.5 -72.5t191.5 73t76.5 206q0 38 -9 70t-21.5 55.5t-36 45t-43.5 35t-54.5 29t-57 23.5t-63 22.5t-61.5 22.5q-89 -52 -138.5 -122.5t-49.5 -180.5zM334 1092q0 -40 9 -72.5t29 -57t40 -42t55.5 -34t60 -26t68.5 -24.5 q176 102 176 256q0 103 -62 154.5t-159 51.5t-157 -51t-60 -155z" />
<glyph unicode="9" horiz-adv-x="1095" d="M113 1018q0 191 126 308.5t316 117.5q215 0 325.5 -134t110.5 -382q0 -141 -39.5 -274t-102.5 -231.5t-139 -181.5t-151 -135.5t-136 -81t-97 -28.5q-28 0 -48 40.5t-20 67.5q0 16 16 23q202 83 328 224.5t178 320.5q-116 -68 -276 -68q-167 0 -279 114.5t-112 299.5z M287 1026q0 -140 77.5 -207t190.5 -67q137 0 256 69q8 82 8 123q0 103 -24 175.5t-65.5 109t-86.5 52t-98 15.5q-44 0 -87.5 -16.5t-82.5 -47.5t-63.5 -85t-24.5 -121z" />
<glyph unicode=":" horiz-adv-x="405" d="M104 41v135q0 45 82 45h35q82 0 82 -45v-135q0 -45 -82 -45h-35q-82 0 -82 45zM104 895v135q0 45 82 45h35q82 0 82 -45v-135q0 -45 -82 -45h-35q-82 0 -82 45z" />
<glyph unicode=";" horiz-adv-x="405" d="M25 -207q0 13 18 49q70 140 70 314q0 30 21 47.5t61 17.5h18q38 0 60 -15.5t22 -41.5q0 -87 -23 -165.5t-57 -128.5t-69 -79t-62 -29q-59 0 -59 31zM104 895v135q0 45 82 45h35q82 0 82 -45v-135q0 -45 -82 -45h-35q-82 0 -82 45z" />
<glyph unicode="&#x3c;" horiz-adv-x="1146" d="M84 449v34q0 50 51 72l842 356q17 7 31 7q19 0 31 -14t12 -40v-28q0 -54 -50 -72l-729 -297l729 -299q50 -21 50 -72v-28q0 -26 -12 -40t-31 -14q-16 0 -31 6l-842 357q-51 22 -51 72z" />
<glyph unicode="=" horiz-adv-x="1146" d="M98 281v16q0 61 62 61h827q62 0 62 -61v-16q0 -62 -62 -62h-827q-29 0 -45.5 16.5t-16.5 45.5zM98 616v15q0 61 62 61h827q62 0 62 -61v-15q0 -61 -62 -61h-827q-29 0 -45.5 16t-16.5 45z" />
<glyph unicode="&#x3e;" horiz-adv-x="1146" d="M94 66v28q0 51 49 72l729 299l-729 297q-49 18 -49 72v28q0 26 12 39.5t31 13.5q16 0 31 -6l842 -356q51 -22 51 -72v-35q0 -49 -51 -71l-842 -357q-15 -6 -31 -6q-19 0 -31 14t-12 40z" />
<glyph unicode="?" horiz-adv-x="911" d="M98 1329q0 49 115 83t238 34q196 0 307.5 -99.5t111.5 -244.5q0 -76 -38.5 -148.5t-95.5 -131t-114.5 -115t-103 -122t-53.5 -130.5q-3 -21 -18 -31t-50 -10h-30q-62 0 -62 47q0 70 46 155.5t130 169.5q53 53 76.5 78t57.5 67.5t47.5 77.5t13.5 72q0 213 -258 213 q-56 0 -112.5 -17t-94 -34.5t-47.5 -17.5q-15 0 -40.5 41t-25.5 63zM279 41v135q0 45 81 45h35q82 0 82 -45v-135q0 -45 -82 -45h-35q-81 0 -81 45z" />
<glyph unicode="@" horiz-adv-x="1994" d="M172 485q0 159 45.5 306t130 264.5t197.5 205.5t254.5 135.5t294.5 47.5q309 0 495.5 -182.5t186.5 -483.5q0 -185 -54 -337t-153 -241t-223 -89q-93 0 -148 49.5t-55 120.5v14q-101 -184 -277 -184q-38 0 -76 9.5t-79 35.5t-71.5 66t-50.5 107.5t-20 153.5 q0 244 118.5 397.5t313.5 153.5q132 0 228 -96q5 12 11 31t9.5 26.5t10 17t16 12.5t24.5 3h13q45 0 45 -43q-68 -631 -68 -680q0 -24 7 -41.5t15.5 -26t22 -13t20.5 -5t17 -0.5q75 0 142.5 77t109 207t41.5 275q0 259 -157 417.5t-414 158.5q-168 0 -318.5 -68 t-258.5 -183.5t-171 -276.5t-63 -341q0 -292 154 -472.5t403 -180.5q87 0 154.5 15t106 29.5t54.5 14.5q29 0 29 -47q0 -37 -67.5 -61.5t-140 -32.5t-136.5 -8q-196 0 -348 93t-236 262t-84 388zM719 494q0 -258 180 -258q70 0 141.5 67t122.5 221q26 270 39 314 q-83 69 -188 69q-85 0 -145 -34.5t-91.5 -95.5t-45 -130t-13.5 -153z" />
<glyph unicode="A" horiz-adv-x="1255" d="M25 31q0 10 6 28l485 1346q11 33 82 33h59q71 0 82 -33l486 -1348q6 -15 6 -26q0 -35 -88 -35h-17q-71 0 -82 33l-120 336h-602l-117 -336q-11 -33 -82 -33h-10q-88 0 -88 35zM379 520h489l-215 610q-11 33 -24 119h-4q-16 -76 -31 -119z" />
<glyph unicode="B" horiz-adv-x="1214" d="M199 61v1311q0 32 14.5 47t46.5 15h367q223 0 340.5 -98.5t117.5 -264.5q0 -102 -67.5 -194t-157.5 -117v-8q12 -3 31 -9.5t68.5 -33t87.5 -61t69 -97.5t31 -139q0 -412 -535 -412h-352q-32 0 -46.5 14.5t-14.5 46.5zM379 156h299q135 0 209 70.5t74 193.5 q0 114 -81 176.5t-237 62.5h-264v-503zM379 815h237q123 0 203 69.5t80 170.5q0 115 -69.5 169t-221.5 54h-229v-463z" />
<glyph unicode="C" horiz-adv-x="1267" d="M117 717q0 729 663 729q147 0 269 -42t122 -85q0 -28 -25 -73.5t-44 -45.5q-6 0 -32.5 14t-61 31t-96 31t-128.5 14q-248 0 -364.5 -137.5t-116.5 -437.5q0 -294 115.5 -433t357.5 -139q72 0 139.5 16t106 35.5t69 35.5t37.5 16q19 0 45.5 -45t26.5 -66t-33 -46.5 t-88 -48t-136 -37.5t-167 -15q-337 0 -498 177.5t-161 551.5z" />
<glyph unicode="D" horiz-adv-x="1423" d="M199 61v1311q0 32 14.5 47t46.5 15h414q109 0 201.5 -23.5t173 -77t137 -135t89 -204t32.5 -277.5q0 -193 -48.5 -335t-137 -224t-199.5 -120t-248 -38h-414q-32 0 -46.5 14.5t-14.5 46.5zM379 156h280q99 0 180.5 31t145.5 95t99.5 175t35.5 260q0 148 -35.5 259 t-99.5 175.5t-145.5 95.5t-180.5 31h-280v-1122z" />
<glyph unicode="E" horiz-adv-x="1118" d="M199 61v1311q0 32 14.5 47t46.5 15h715q41 0 41 -62v-33q0 -61 -41 -61h-596v-467h534q41 0 41 -61v-33q0 -62 -41 -62h-534v-499h598q41 0 41 -62v-33q0 -61 -41 -61h-717q-32 0 -46.5 14.5t-14.5 46.5z" />
<glyph unicode="F" horiz-adv-x="1030" d="M199 41v1331q0 32 14.5 47t46.5 15h645q41 0 41 -62v-33q0 -61 -41 -61h-526v-467h489q41 0 41 -61v-33q0 -62 -41 -62h-489v-614q0 -45 -82 -45h-16q-82 0 -82 45z" />
<glyph unicode="G" horiz-adv-x="1376" d="M117 705q0 741 663 741q147 0 269 -42t122 -85q0 -28 -25 -73.5t-44 -45.5q-6 0 -32.5 14t-61 31t-96 31t-128.5 14q-134 0 -227.5 -38t-149 -113t-80 -176.5t-24.5 -239.5q0 -99 12.5 -181t44.5 -158t82.5 -127.5t132 -82.5t187.5 -31q158 0 264 27v414h-240 q-41 0 -41 61v33q0 61 41 61h359q32 0 46.5 -14.5t14.5 -46.5v-543q0 -41 -37.5 -71t-104 -46t-144 -23t-170.5 -7q-310 0 -471.5 178t-161.5 539z" />
<glyph unicode="H" horiz-adv-x="1501" d="M199 41v1352q0 45 82 45h16q82 0 82 -45v-580h741v580q0 45 82 45h17q81 0 81 -45v-1352q0 -45 -81 -45h-17q-82 0 -82 45v616h-741v-616q0 -45 -82 -45h-16q-82 0 -82 45z" />
<glyph unicode="I" horiz-adv-x="577" d="M199 41v1352q0 45 82 45h16q82 0 82 -45v-1352q0 -45 -82 -45h-16q-82 0 -82 45z" />
<glyph unicode="J" horiz-adv-x="823" d="M12 53q0 21 12 67t33 46q2 0 46 -9.5t83 -9.5q152 0 219.5 60t67.5 192v994q0 45 82 45h16q82 0 82 -45v-973q0 -432 -434 -432q-34 0 -66 2.5t-66 9t-54.5 20.5t-20.5 33z" />
<glyph unicode="K" horiz-adv-x="1179" d="M199 41v1352q0 45 82 45h16q82 0 82 -45v-627h8l504 643q23 29 110 29h21q35 0 53.5 -8t18.5 -19q0 -17 -21 -41l-512 -639l621 -674q18 -21 18 -32q0 -17 -20.5 -23t-69.5 -6h-25q-30 0 -45 1t-35 7t-32 19l-586 659h-8v-641q0 -45 -82 -45h-16q-82 0 -82 45z" />
<glyph unicode="L" horiz-adv-x="991" d="M199 61v1332q0 45 82 45h16q82 0 82 -45v-1237h563q41 0 41 -62v-33q0 -61 -41 -61h-682q-32 0 -46.5 14.5t-14.5 46.5z" />
<glyph unicode="M" horiz-adv-x="1726" d="M184 41v1352q0 45 82 45h74q67 0 86 -37l387 -672l53 -129l54 117l387 684q19 37 86 37h67q82 0 82 -45v-1352q0 -45 -82 -45h-14q-82 0 -82 45v1102l-4 -8l-408 -709q-15 -27 -45 -27h-82q-30 0 -45 27l-413 721l-5 8v-1114q0 -45 -81 -45h-15q-82 0 -82 45z" />
<glyph unicode="N" horiz-adv-x="1472" d="M184 41v1352q0 45 82 45h43q34 0 52.5 -8.5t33.5 -30.5l654 -987l61 -115v1096q0 45 82 45h14q82 0 82 -45v-1352q0 -45 -82 -45h-41q-52 0 -71 29l-676 1019l-56 105v-1108q0 -45 -81 -45h-15q-82 0 -82 45z" />
<glyph unicode="O" horiz-adv-x="1497" d="M117 721q0 358 161 541.5t470 183.5q310 0 471 -183.5t161 -541.5q0 -359 -161.5 -546t-470.5 -187q-308 0 -469.5 187t-161.5 546zM303 721q0 -282 114 -430t331 -148t331.5 148t114.5 430q0 281 -114 425t-332 144t-331.5 -144t-113.5 -425z" />
<glyph unicode="P" horiz-adv-x="1167" d="M174 41v1331q0 62 62 62h415q60 0 115.5 -8t120.5 -34t111.5 -68.5t78 -117.5t31.5 -174q0 -77 -19 -141t-48.5 -106.5t-71 -75.5t-81.5 -51t-83.5 -29.5t-74.5 -15t-58 -3.5h-318v-569q0 -45 -82 -45h-16q-82 0 -82 45zM354 766h320q37 0 74.5 11t79 37.5t68 83 t26.5 134.5q0 58 -17.5 103t-45 71.5t-65.5 43t-73.5 22.5t-75.5 6h-291v-512z" />
<glyph unicode="Q" horiz-adv-x="1497" d="M117 711q0 360 161.5 547.5t469.5 187.5q309 0 470.5 -188t161.5 -547q0 -290 -105.5 -468.5t-305.5 -232.5v-8l403 -127q29 -10 29 -31q0 -28 -27.5 -87.5t-58.5 -59.5q-16 0 -375 141t-436 174q-387 153 -387 699zM303 711q0 -278 116 -426t329 -148q214 0 330 148.5 t116 425.5q0 279 -116 429t-330 150q-213 0 -329 -149.5t-116 -429.5z" />
<glyph unicode="R" horiz-adv-x="1249" d="M199 41v1331q0 32 14.5 47t46.5 15h344q245 0 369.5 -87t124.5 -276q0 -128 -62.5 -215t-173.5 -131v-8q60 -20 100 -80.5t85 -175.5l159 -404q6 -18 6 -28q0 -33 -86 -33h-20q-69 0 -82 33l-156 401q-44 116 -112 158.5t-193 42.5h-184v-590q0 -45 -82 -45h-16 q-82 0 -82 45zM379 786h270q109 0 185.5 75t76.5 177q0 121 -73.5 180.5t-202.5 59.5h-256v-492z" />
<glyph unicode="S" horiz-adv-x="1024" d="M76 137q0 25 27 68t44 43q7 0 37.5 -16.5t69.5 -36t106.5 -36t139.5 -16.5q118 0 193 67t75 175q0 46 -19 85t-38.5 62.5t-71.5 52t-75.5 38t-92.5 36.5q-8 3 -12 5h-1l-1 1h-1l-1 1h-1h-1l-1 1h-2q-142 56 -201 98q-139 97 -147 279v23q0 167 125.5 273t329.5 106 q62 0 137 -15t134 -45t59 -65q0 -24 -25.5 -66.5t-40.5 -42.5q-9 0 -43.5 19.5t-94 39t-130.5 19.5q-119 0 -191.5 -60.5t-72.5 -170.5q0 -51 17 -87.5t61.5 -65.5t73.5 -42t100 -39q17 -7 26 -10q45 -17 70 -27.5t66.5 -29.5t66.5 -36.5t58 -43t52.5 -54t38 -64t27 -80 t8.5 -95.5q0 -184 -123 -290.5t-331 -106.5q-86 0 -167 15.5t-136 38.5t-88 48.5t-33 46.5z" />
<glyph unicode="T" horiz-adv-x="1124" d="M41 1339v33q0 62 41 62h960q41 0 41 -62v-33q0 -61 -41 -61h-387v-1237q0 -45 -82 -45h-16q-82 0 -82 45v1237h-393q-41 0 -41 61z" />
<glyph unicode="U" horiz-adv-x="1458" d="M170 459v934q0 45 82 45h16q82 0 82 -45v-940q0 -136 107.5 -223t271.5 -87t271.5 87.5t107.5 222.5v940q0 45 82 45h16q82 0 82 -45v-934q0 -223 -145.5 -347t-413.5 -124q-269 0 -414 124t-145 347z" />
<glyph unicode="V" horiz-adv-x="1263" d="M43 1403q0 35 88 35h19q70 0 81 -33l379 -1094l21 -106h6l22 108l379 1092q11 33 82 33h13q88 0 88 -35q0 -8 -7 -29l-469 -1345q-11 -33 -81 -33h-64q-71 0 -82 33l-469 1347q-6 15 -6 27z" />
<glyph unicode="W" horiz-adv-x="1806" d="M31 1403q0 35 88 35h20q74 0 82 -33l260 -1008q6 -24 15 -70.5t15 -82t7 -37.5l49 196l248 1000q8 35 80 35h33q72 0 80 -35l254 -1008q8 -32 16.5 -79t13.5 -78l4 -31l50 194l247 1004q8 33 82 33h13q88 0 88 -35q0 -1 -7 -29l-354 -1345q-8 -33 -82 -33h-84 q-74 0 -82 33l-223 833l-43 266l-43 -266l-223 -833q-8 -33 -82 -33h-84q-74 0 -82 33l-350 1345q-6 24 -6 29z" />
<glyph unicode="X" horiz-adv-x="1251" d="M41 31q0 15 16 37l459 680l-410 618q-16 22 -16 37q0 35 94 35h29q68 0 88 -31l328 -494l338 496q18 29 88 29h12q51 0 72.5 -8t21.5 -27q0 -9 -16 -37l-410 -608l461 -690q16 -22 16 -37q0 -35 -94 -35h-33q-68 0 -88 31l-376 563l-381 -565q-18 -29 -88 -29h-17 q-51 0 -72.5 8t-21.5 27z" />
<glyph unicode="Y" horiz-adv-x="1144" d="M37 1403q0 35 94 35h23q68 0 88 -31l336 -504l344 506q18 29 92 29h14q80 -3 80 -35q0 -9 -16 -37l-430 -637v-688q0 -45 -82 -45h-17q-82 0 -82 45v694l-428 631q-16 22 -16 37z" />
<glyph unicode="Z" horiz-adv-x="1261" d="M78 109q0 15 6 24l840 1145h-738q-41 0 -41 70v16q0 70 41 70h938q11 0 28 -39t17 -70q0 -16 -6 -25l-839 -1144h800q41 0 41 -70v-16q0 -70 -41 -70h-997q-15 0 -32 39t-17 70z" />
<glyph unicode="[" horiz-adv-x="595" d="M184 -221v1732q0 62 62 62h248q22 0 31.5 -14t9.5 -46v-10q0 -32 -9.5 -45.5t-31.5 -13.5h-158v-1600h158q22 0 31.5 -13.5t9.5 -45.5v-8q0 -32 -9.5 -46t-31.5 -14h-248q-62 0 -62 62z" />
<glyph unicode="\" horiz-adv-x="739" d="M10 1397q0 41 49 41h9q51 0 71 -47l586 -1360q6 -15 6 -31q0 -41 -53 -41h-8q-48 0 -68 47l-586 1360q-6 15 -6 31z" />
<glyph unicode="]" horiz-adv-x="595" d="M61 -215q0 32 9.5 45.5t31.5 13.5h158v1600h-158q-22 0 -31.5 13.5t-9.5 45.5v10q0 32 9.5 46t31.5 14h248q62 0 62 -62v-1732q0 -62 -62 -62h-248q-22 0 -31.5 14t-9.5 46v8z" />
<glyph unicode="^" horiz-adv-x="921" d="M109 698q0 14 6 29l256 633q9 24 25 32.5t44 8.5h41q28 0 44 -8.5t26 -32.5l256 -633q6 -15 6 -29q0 -43 -55 -43h-8q-55 0 -72 47l-217 535l-219 -535q-20 -47 -70 -47h-8q-55 0 -55 43z" />
<glyph unicode="_" horiz-adv-x="1093" d="M-43 -225q0 22 9.5 31.5t31.5 9.5h1098q22 0 31.5 -9.5t9.5 -31.5v-17q0 -22 -9.5 -31.5t-31.5 -9.5h-1098q-22 0 -31.5 9.5t-9.5 31.5v17z" />
<glyph unicode="`" d="M152 1473q0 26 98 26q96 0 127 -53q78 -136 98.5 -174.5t20.5 -52.5q0 -21 -47 -21q-71 0 -105 37q-30 34 -76 87q-80 91 -98 114t-18 37z" />
<glyph unicode="a" horiz-adv-x="1116" d="M100 295q0 56 13.5 103.5t35.5 82.5t58 63.5t73 47.5t88.5 33t96 21.5t104 12.5t105 7t106.5 2v96q0 77 -53 124.5t-172 47.5q-82 0 -156.5 -21.5t-116.5 -43t-46 -21.5q-20 0 -46 41t-26 61q0 27 52 57t144 52t189 22q191 0 297 -84.5t106 -236.5v-459q0 -47 2.5 -90 t6 -71t7.5 -49.5t6.5 -33.5t2.5 -14q0 -25 -38.5 -36t-72.5 -11q-10 0 -18.5 4.5t-15 14.5t-11 19t-9 25.5t-6.5 26l-6 28.5t-5 25q-139 -153 -344 -153q-157 0 -254 77.5t-97 229.5zM285 305q0 -82 44 -125t130 -43q102 0 173.5 37t147.5 105v241q-208 -2 -297 -21 q-198 -42 -198 -194z" />
<glyph unicode="b" horiz-adv-x="1165" d="M174 41v1454q0 45 82 45h8q82 0 82 -45v-516q136 104 293 104q188 0 302 -143t114 -403q0 -243 -108 -396t-290 -153q-178 0 -325 153q-9 -58 -33 -121q-11 -24 -55 -24h-8q-62 0 -62 45zM346 279q62 -68 135 -105t142 -37q121 0 186 107.5t65 306.5q0 184 -69 281 t-205 100q-142 0 -254 -92v-561z" />
<glyph unicode="c" horiz-adv-x="993" d="M106 541q0 124 28.5 220.5t74.5 156t110.5 97.5t131 53t141.5 15q119 0 213 -28.5t94 -65.5q0 -27 -23 -68.5t-42 -41.5q-2 0 -5 1t-8 3l-10 4q-113 49 -223 49q-297 0 -297 -391q0 -218 72.5 -314t244.5 -96q123 0 232 53q5 2 10.5 4t8 3.5t3.5 2.5q20 0 45 -41t25 -65 q0 -37 -97 -70.5t-225 -33.5q-254 0 -379 131t-125 422z" />
<glyph unicode="d" horiz-adv-x="1157" d="M106 535q0 261 114 404.5t302 143.5q157 0 293 -104v516q0 45 82 45h8q82 0 82 -45v-1192q0 -47 2.5 -90t6.5 -71t7.5 -49.5t6 -33.5t2.5 -14q0 -25 -38.5 -36t-72.5 -11q-10 0 -18.5 4.5t-15 15t-11.5 18.5t-9.5 25.5t-6.5 25.5t-6 28.5t-5 25.5q-147 -153 -325 -153 q-121 0 -212 70.5t-138.5 194.5t-47.5 282zM287 551q0 -198 65.5 -306t186.5 -108q68 0 141 37t135 105v561q-112 92 -252 92q-137 -3 -206.5 -100t-69.5 -281z" />
<glyph unicode="e" horiz-adv-x="1103" d="M113 528q0 272 121.5 413.5t355.5 141.5q210 0 316 -136t106 -398q0 -20 -25 -52t-43 -32h-647q12 -171 87.5 -250.5t227.5 -79.5q61 0 118.5 13.5t91 29.5t59 29.5t30.5 13.5q20 0 46 -41t26 -61q0 -19 -29 -41.5t-77 -42.5t-118.5 -33.5t-144.5 -13.5 q-255 0 -378 132.5t-123 407.5zM297 612h532q0 324 -245 324q-266 0 -287 -324z" />
<glyph unicode="f" horiz-adv-x="665" d="M98 985v25q0 61 41 61h82v195q0 70 18 123t45 82t64.5 47.5t69.5 24t67 5.5q150 0 150 -61q0 -21 -12 -58.5t-31 -37.5q-4 0 -28.5 5t-59.5 5q-53 0 -82 -30t-29 -122v-178h178q41 0 41 -61v-25q0 -61 -41 -61h-178v-883q0 -45 -82 -45h-8q-82 0 -82 45v883h-82 q-41 0 -41 61z" />
<glyph unicode="g" horiz-adv-x="1118" d="M94 -180q0 89 52 155.5t135 100.5l2 4q-82 65 -82 168q0 134 114 213q-86 42 -131 118t-45 171q0 145 106.5 239t297.5 94q65 0 121 -12h372q41 0 41 -61v-25q0 -61 -41 -61q-84 0 -143 6l-2 -4q53 -74 53 -176q0 -147 -106 -241.5t-297 -94.5q-97 -3 -146 -35.5 t-49 -106.5q0 -21 5.5 -38.5t18 -31t25.5 -23.5t35.5 -17.5t40 -12.5t47.5 -9.5t49.5 -6.5t54.5 -6t54 -6q54 -7 93 -15t82.5 -26t70.5 -43t45 -66.5t18 -95.5q0 -149 -119 -229t-348 -80q-128 0 -220 24.5t-148 82.5t-56 147zM248 -147q0 -148 293 -148q280 0 280 152 q0 44 -29.5 71t-81.5 39t-105.5 18t-118 13.5t-103.5 19.5q-135 -57 -135 -165zM297 748q0 -197 244 -197q245 0 245 197q0 198 -245 198q-244 0 -244 -198z" />
<glyph unicode="h" horiz-adv-x="1157" d="M188 41v1454q0 45 82 45h9q81 0 81 -45v-553q61 61 142 101t172 40q44 0 84.5 -7.5t86 -29.5t78.5 -57t54.5 -96t21.5 -141v-711q0 -45 -81 -45h-9q-82 0 -82 45v694q0 93 -53.5 146t-155.5 53q-43 0 -85.5 -14.5t-72.5 -36t-53.5 -42.5t-34.5 -35l-12 -15v-750 q0 -45 -81 -45h-9q-82 0 -82 45z" />
<glyph unicode="i" horiz-adv-x="542" d="M178 1374v121q0 45 82 45h25q82 0 82 -45v-121q0 -45 -82 -45h-25q-82 0 -82 45zM186 41v989q0 45 82 45h8q82 0 82 -45v-989q0 -45 -82 -45h-8q-82 0 -82 45z" />
<glyph unicode="j" horiz-adv-x="565" d="M-35 -373q0 21 12 59t31 38q4 0 28.5 -5.5t59.5 -5.5q111 0 111 152v1165q0 45 82 45h8q82 0 82 -45v-1182q0 -68 -18 -120.5t-45 -82t-64 -48.5t-70 -25t-67 -6q-150 0 -150 61zM199 1374v121q0 45 82 45h24q82 0 82 -45v-121q0 -45 -82 -45h-24q-82 0 -82 45z" />
<glyph unicode="k" horiz-adv-x="1067" d="M193 41v1454q0 45 81 45h9q82 0 82 -45v-915h8l391 467q22 28 108 28h9q71 0 71 -26q0 -18 -20 -41l-381 -451l422 -500q18 -21 18 -32q0 -17 -20.5 -23t-69.5 -6h-8q-89 0 -111 27l-409 485h-8v-467q0 -45 -82 -45h-9q-81 0 -81 45z" />
<glyph unicode="l" horiz-adv-x="608" d="M168 270v1225q0 45 82 45h8q82 0 82 -45v-1208q0 -152 111 -152q35 0 59.5 5t28.5 5q19 0 31 -37.5t12 -58.5q0 -61 -150 -61q-34 0 -67 6t-70 25t-64 48.5t-45 82t-18 120.5z" />
<glyph unicode="m" horiz-adv-x="1736" d="M150 1018q0 25 38 36t72 11q10 0 18.5 -4t15 -14t11.5 -18t9.5 -24t6.5 -24.5t6 -27t5 -23.5q57 65 138.5 109t172.5 44q42 0 81 -7.5t81 -25t76.5 -52.5t54.5 -85q63 75 148.5 122.5t177.5 47.5q44 0 84 -7.5t85 -29.5t77 -57t53.5 -96t21.5 -141v-711q0 -45 -82 -45h-8 q-82 0 -82 45v694q0 93 -50.5 146t-146.5 53q-130 0 -251 -143q2 -14 2 -41v-709q0 -45 -82 -45h-9q-81 0 -81 45v694q0 93 -50.5 146t-146.5 53q-42 0 -83 -14.5t-70 -35t-52 -41.5t-34 -35l-11 -15v-752q0 -45 -82 -45h-8q-82 0 -82 45v719q0 47 -2.5 90t-6 71t-7 49.5 t-6 33.5t-2.5 14z" />
<glyph unicode="n" horiz-adv-x="1140" d="M152 1018q0 25 38 36t72 11q10 0 18.5 -4t15 -14t11.5 -18t9.5 -24t6.5 -24.5t6 -27t5 -23.5q65 72 149 112.5t170 40.5q157 0 245.5 -88t88.5 -243v-711q0 -45 -82 -45h-8q-82 0 -82 45v694q0 94 -55 146.5t-154 52.5q-69 0 -138 -38.5t-120 -104.5v-750q0 -45 -82 -45 h-8q-82 0 -82 45v719q0 47 -2.5 90t-6 71t-7 49.5t-6 33.5t-2.5 14z" />
<glyph unicode="o" horiz-adv-x="1165" d="M113 530q0 266 123 409.5t352 143.5q225 0 345 -143t120 -410q0 -266 -118 -404t-347 -138q-232 0 -353.5 139t-121.5 403zM293 535q0 -205 69.5 -302.5t219.5 -97.5t221 97.5t71 302.5t-71 303t-221 98q-149 0 -219 -97.5t-70 -303.5z" />
<glyph unicode="p" horiz-adv-x="1173" d="M152 1018q0 25 38 36t72 11q10 0 18.5 -4t15 -14t11.5 -18t9.5 -24t6.5 -24.5t6 -27t5 -23.5q147 153 325 153q124 0 215 -71.5t137 -194.5t46 -282q0 -260 -114 -403.5t-302 -143.5q-157 0 -293 104v-473q0 -45 -82 -45h-8q-82 0 -82 45v1141q0 47 -2.5 90t-6 71 t-7 49.5t-6 33.5t-2.5 14zM348 231q112 -92 254 -92q136 3 205.5 100t69.5 281q0 198 -65.5 306t-186.5 108q-69 0 -142 -36.5t-135 -104.5v-562z" />
<glyph unicode="q" horiz-adv-x="1159" d="M106 532q0 245 108 398t290 153q178 0 325 -153q14 73 33 121q11 24 56 24h8q61 0 61 -45v-1411q0 -45 -82 -45h-8q-82 0 -82 45v473q-136 -104 -293 -104q-188 0 -302 143t-114 401zM287 520q0 -184 69 -281t205 -100q142 0 254 92v562q-62 68 -134.5 104.5t-141.5 36.5 q-121 0 -186.5 -108t-65.5 -306z" />
<glyph unicode="r" horiz-adv-x="749" d="M160 1018q0 25 38 36t72 11q10 0 18.5 -4t15 -14t11.5 -18t9.5 -24t6.5 -24.5t6 -27t5 -23.5q109 153 238 153q58 0 88 -22t30 -57q0 -34 -12 -72.5t-29 -38.5q-8 0 -40 11t-72 11q-30 0 -60 -13t-52.5 -31t-40.5 -36t-27 -31l-9 -13v-750q0 -45 -82 -45h-8q-82 0 -82 45 v719q0 47 -2.5 90t-6 71t-7 49.5t-6 33.5t-2.5 14z" />
<glyph unicode="s" horiz-adv-x="845" d="M72 111q0 20 25.5 61t45.5 41q2 0 33.5 -20.5t88 -41t120.5 -20.5q201 0 201 166q0 69 -45 109.5t-160 74.5q-161 48 -223 118t-62 189q0 129 95.5 213t244.5 84q104 0 187.5 -27t83.5 -61q0 -27 -23.5 -68.5t-42.5 -41.5q-1 0 -25.5 13.5t-68 26.5t-92.5 13 q-79 0 -131 -35t-52 -94q0 -69 37 -110.5t123 -67.5q192 -59 260 -126.5t68 -205.5q0 -137 -105 -228t-258 -91q-87 0 -165 22.5t-119 52.5t-41 54z" />
<glyph unicode="t" horiz-adv-x="700" d="M76 985v25q0 61 41 61h102l25 215q3 45 65 45h21q61 0 61 -45v-215h172q41 0 41 -61v-25q0 -61 -41 -61h-172v-637q0 -152 111 -152q35 0 59.5 5t28.5 5q19 0 31 -37.5t12 -58.5q0 -61 -150 -61q-34 0 -67 6t-70 25t-64 48.5t-45 82t-18 120.5v654h-102q-41 0 -41 61z " />
<glyph unicode="u" horiz-adv-x="1140" d="M154 319v711q0 45 82 45h8q82 0 82 -45v-694q0 -94 55 -146.5t154 -52.5q69 0 138 39t120 105v749q0 45 81 45h9q82 0 82 -45v-727q0 -47 2.5 -90t6 -71t7 -49.5t6 -33.5t2.5 -14q0 -25 -38 -36t-72 -11q-10 0 -18.5 4.5t-15 15t-11.5 18.5t-9.5 25.5t-6.5 25.5t-6 28.5 t-5 25.5q-65 -72 -149.5 -112.5t-170.5 -40.5q-157 0 -245 88t-88 243z" />
<glyph unicode="v" horiz-adv-x="993" d="M43 1040q0 35 88 35h10q71 0 82 -33l209 -653q28 -86 72 -256h8q49 215 61 252l211 657q11 33 84 33h6q76 0 76 -35q0 -10 -6 -28l-330 -983q-11 -33 -82 -33h-71q-71 0 -82 33l-330 985q-6 18 -6 26z" />
<glyph unicode="w" horiz-adv-x="1529" d="M61 1040q0 35 95 35q74 0 82 -33l172 -655q14 -57 51 -233q21 123 51 235l170 651q8 35 80 35h14q70 0 80 -35l172 -651q24 -91 51 -233q33 172 47 229l172 657q8 33 84 33q82 0 82 -35q0 -10 -6 -28l-274 -983q-8 -33 -82 -33h-62q-71 0 -79 33l-164 649q-17 66 -31 160 q-15 -96 -31 -158l-168 -651q-8 -33 -82 -33h-61q-74 0 -82 33l-270 970q-11 33 -11 41z" />
<glyph unicode="x" horiz-adv-x="993" d="M41 31q0 15 16 37l332 481l-307 455q-16 22 -16 36q0 35 94 35h18q68 0 88 -31l195 -292q12 -18 43 -72q31 54 43 72l196 295q17 28 93 28h8q86 0 86 -35q0 -12 -17 -36l-309 -451l332 -485q16 -22 16 -37q0 -35 -94 -35h-18q-68 0 -88 31l-217 325q-12 18 -43 72 q-31 -54 -43 -72l-222 -327q-20 -29 -92 -29h-6q-47 0 -67.5 8t-20.5 27z" />
<glyph unicode="y" horiz-adv-x="985" d="M37 1040q0 35 88 35h16q69 0 82 -33l209 -555q38 -103 66 -206h4q59 186 67 206l205 555q11 33 84 33h6q82 0 82 -35q0 -10 -6 -28l-526 -1395q-17 -43 -97 -43h-30q-68 0 -68 33q0 8 10 35l172 415l-358 957q-6 18 -6 26z" />
<glyph unicode="z" horiz-adv-x="1001" d="M76 104q0 14 6 23l600 797h-524q-41 0 -41 61v25q0 61 41 61h719q14 0 27.5 -38t13.5 -68q0 -11 -5 -21l-598 -797h564q41 0 41 -61v-25q0 -61 -41 -61h-758q-12 0 -28.5 37t-16.5 67z" />
<glyph unicode="{" horiz-adv-x="561" d="M41 631v28q0 48 51 70q63 29 84 90t21 174v342q0 69 17 119t43.5 74t51 34.5t47.5 10.5h103q22 0 31.5 -14t9.5 -46v-8q0 -32 -9.5 -45.5t-31.5 -13.5h-45q-41 0 -55.5 -30t-14.5 -95v-360q0 -204 -160 -318q12 -5 29 -17.5t40.5 -39.5t43 -60.5t33.5 -85.5t14 -110v-359 q0 -65 15 -96t55 -31h45q22 0 31.5 -13.5t9.5 -45.5v-8q0 -32 -9.5 -46t-31.5 -14h-103q-24 0 -48 10t-50.5 33.5t-43.5 74t-17 120.5v342q0 112 -21 173.5t-84 90.5q-51 22 -51 70z" />
<glyph unicode="|" horiz-adv-x="512" d="M197 -242v1774q0 45 49 45h20q49 0 49 -45v-1774q0 -45 -49 -45h-20q-49 0 -49 45z" />
<glyph unicode="}" horiz-adv-x="561" d="M61 -215q0 32 9.5 45.5t31.5 13.5h45q40 0 55 31t15 96v359q0 58 14 110t33.5 85.5t43 60.5t40.5 39.5t29 17.5q-160 114 -160 318v360q0 65 -14.5 95t-55.5 30h-45q-22 0 -31.5 13.5t-9.5 45.5v8q0 32 9.5 46t31.5 14h103q23 0 48 -10.5t51.5 -34.5t43.5 -74t17 -119 v-342q0 -114 20.5 -174.5t83.5 -89.5q51 -22 51 -70v-28q0 -48 -51 -70q-63 -29 -83.5 -90t-20.5 -174v-342q0 -70 -17 -120.5t-44 -74t-51 -33.5t-48 -10h-103q-22 0 -31.5 14t-9.5 46v8z" />
<glyph unicode="~" horiz-adv-x="1120" d="M136.5 501q1.5 9 8.5 23q39 76 93.5 109t130.5 33q74 0 221 -44t201 -44q60 0 106 59q17 23 33 28t39 -3l18 -7q23 -7 27 -18.5t-8 -34.5q-72 -139 -222 -139q-79 0 -227 44t-201 44q-30 0 -52.5 -14t-49.5 -48q-17 -23 -31.5 -27.5t-38.5 3.5l-22 8q-15 5 -21 12 t-4.5 16z" />
<glyph unicode="&#xa1;" horiz-adv-x="602" d="M168 -322q0 22 9.5 180.5t24 399t21.5 354.5q3 45 64 45h22q62 0 62 -45v-934q0 -45 -82 -45h-41q-80 0 -80 45zM197 895v135q0 45 82 45h34q82 0 82 -45v-135q0 -45 -82 -45h-34q-82 0 -82 45z" />
<glyph unicode="&#xa2;" horiz-adv-x="995" d="M113 541q0 118 24.5 210.5t65.5 152t99 99t118.5 57t130.5 21.5v80q0 33 41 33t41 -33v-80q103 -4 179.5 -32t76.5 -60q0 -27 -23.5 -68.5t-42.5 -41.5q-3 0 -27 11.5t-68.5 25.5t-94.5 18v-799q56 4 107 19.5t80 29t32 13.5q20 0 45 -40.5t25 -64.5q0 -35 -85.5 -67.5 t-203.5 -36.5v-109q0 -33 -41 -33t-41 33v111q-222 12 -330 144t-108 407zM295 545q0 -200 59 -296.5t197 -111.5v797q-256 -23 -256 -389z" />
<glyph unicode="&#xa3;" horiz-adv-x="1005" d="M68 61v33q0 24 18 40.5t44 29t52 29.5t44 50.5t18 82.5v368h-113q-41 0 -41 62v24q0 62 41 62h113v178q0 426 420 426q34 0 66 -3t65.5 -9.5t54 -20.5t20.5 -33t-12 -59.5t-33 -40.5q-2 0 -46 9t-83 9q-147 0 -213.5 -64t-66.5 -204v-188h301q41 0 41 -62v-24 q0 -62 -41 -62h-301v-184q0 -81 -8.5 -144t-19.5 -98.5t-29.5 -62.5t-30.5 -37t-29 -21h573q41 0 41 -61v-25q0 -61 -41 -61h-763q-41 0 -41 61z" />
<glyph unicode="&#xa4;" horiz-adv-x="1093" d="M174 350q0 22 23 45l49 49q-70 92 -70 215q0 120 70 215l-49 48q-21 21 -21 45q0 17 12 32l9 11q13 16 32 16q23 0 45 -25l50 -49q98 72 215 72t213 -70l49 50q20 20 41 20t39 -18l4 -5q18 -18 18 -34q0 -23 -22 -45l-50 -50q72 -94 72 -213q0 -121 -72 -215l50 -49 q22 -22 22 -43q0 -19 -20 -39l-2 -2q-18 -18 -37 -18q-24 0 -43 22l-49 50q-96 -68 -213 -68q-120 0 -213 68l-52 -52q-20 -20 -43 -20q-18 0 -36 18l-5 4q-16 16 -16 35zM301 659q0 -98 70 -167.5t168 -69.5t168.5 69.5t70.5 167.5t-70.5 169t-168.5 71t-168 -71t-70 -169z " />
<glyph unicode="&#xa5;" horiz-adv-x="1144" d="M37 1403q0 35 94 35h23q68 0 88 -31l336 -504l344 506q18 29 92 29h14q80 -3 80 -35q0 -9 -16 -37l-338 -500h254q41 0 41 -61v-17q0 -61 -41 -61h-346v-197h346q41 0 41 -61v-16q0 -62 -41 -62h-346v-350q0 -45 -82 -45h-17q-82 0 -82 45v350h-342q-41 0 -41 62v16 q0 61 41 61h342v197h-342q-41 0 -41 61v17q0 61 41 61h254l-340 500q-16 22 -16 37z" />
<glyph unicode="&#xa6;" horiz-adv-x="512" d="M197 -242v660q0 45 49 45h20q49 0 49 -45v-660q0 -45 -49 -45h-20q-49 0 -49 45zM197 870v662q0 45 49 45h20q49 0 49 -45v-662q0 -45 -49 -45h-20q-49 0 -49 45z" />
<glyph unicode="&#xa7;" horiz-adv-x="878" d="M102 735q0 141 109 236q-78 71 -78 184q0 75 28 133t75.5 91.5t104.5 50t120 16.5q104 0 186 -26t82 -60q0 -27 -23 -69t-42 -42q-1 0 -25.5 12.5t-68.5 24.5t-93 12q-84 0 -126 -33.5t-42 -88.5q0 -43 26 -71.5t67 -45t90.5 -31t99.5 -37t91 -55t67 -92.5t26 -142 q0 -150 -112 -237q81 -68 81 -182q0 -77 -28 -135.5t-75 -92.5t-103 -50.5t-119 -16.5q-104 0 -186 26t-82 60q0 27 23 68.5t42 41.5q1 0 25 -12t67 -24.5t92 -12.5q84 0 127 34.5t43 88.5q0 38 -20 65t-53 42t-75.5 30t-86 28t-86 38t-75.5 57t-53 88t-20 129zM276 735 q0 -36 12.5 -64.5t29 -46.5t48.5 -34t55.5 -24t65.5 -21q115 26 115 157q0 35 -12.5 63t-29.5 46t-48.5 34t-55.5 25t-65 21q-49 -14 -82 -52t-33 -104z" />
<glyph unicode="&#xa8;" d="M96 1288v105q0 45 90 45q82 0 82 -45v-105q0 -45 -90 -45q-82 0 -82 45zM391 1288v105q0 45 90 45q82 0 82 -45v-105q0 -45 -90 -45q-82 0 -82 45z" />
<glyph unicode="&#xa9;" horiz-adv-x="1513" d="M20 725q0 201 98.5 368.5t267.5 264t370 96.5q151 0 287 -57t235 -154t157 -232.5t58 -285.5t-58 -286.5t-157 -234.5t-235.5 -156t-286.5 -58t-286.5 58t-235 156t-156.5 234.5t-58 286.5zM119 725q0 -129 50.5 -247t136 -203.5t203.5 -136t247 -50.5q130 0 248 50.5 t204 136t136.5 203.5t50.5 247q0 173 -86 318.5t-233 229t-320 83.5q-129 0 -247 -49.5t-203.5 -133.5t-136 -201t-50.5 -247zM395 715q0 436 398 436q88 0 160.5 -25t72.5 -51q0 -16 -16 -43.5t-27 -27.5q-2 0 -25.5 14t-67 27.5t-95.5 13.5q-149 0 -219 -82.5t-70 -261.5 q0 -176 69.5 -259t212.5 -83q56 0 104.5 15.5t75.5 30.5t31 15q11 0 27 -26.5t16 -38.5q0 -28 -77 -58t-177 -30q-200 0 -296.5 106t-96.5 328z" />
<glyph unicode="&#xaa;" horiz-adv-x="653" d="M92 1055q0 36 11 64.5t28 47t45 32.5t54 21t64.5 11.5t66.5 5.5t69 2v49q0 37 -27 60.5t-86 23.5q-41 0 -77.5 -10t-57 -20.5t-22.5 -10.5q-10 0 -23.5 19.5t-13.5 29.5q0 22 59.5 44t130.5 22q94 0 147.5 -42.5t53.5 -117.5v-227q0 -36 3 -66t6 -45l3 -16 q0 -12 -20 -17.5t-35 -5.5q-25 0 -35 72q-71 -78 -172 -78q-76 0 -124 39t-48 113zM184 1061q0 -82 84 -82q87 0 162 68v120q-36 0 -56 -0.5t-54 -3t-53.5 -9.5t-41 -18t-31.5 -30t-10 -45z" />
<glyph unicode="&#xab;" horiz-adv-x="964" d="M90 528q0 24 27 58l266 319q22 25 45 25q21 0 46.5 -21t25.5 -45q0 -17 -17 -41l-227 -295l227 -297q17 -24 17 -38q0 -20 -24 -44t-48 -24q-21 0 -45 27l-266 319q-27 35 -27 57zM442 528q0 24 27 58l266 319q22 25 45 25q21 0 46.5 -21t25.5 -45q0 -19 -16 -41 l-228 -295l228 -297q16 -22 16 -38q0 -20 -24 -44t-48 -24q-21 0 -45 27l-266 319q-27 35 -27 57z" />
<glyph unicode="&#xac;" horiz-adv-x="1146" d="M78 604v27q0 61 41 61h889q32 0 46.5 -14.5t14.5 -46.5v-428q0 -45 -61 -45h-27q-61 0 -61 45v340h-801q-41 0 -41 61z" />
<glyph unicode="&#xad;" d="M90 532v21q0 61 41 61h387q41 0 41 -61v-21q0 -61 -41 -61h-387q-41 0 -41 61z" />
<glyph unicode="&#xae;" horiz-adv-x="1513" d="M20 725q0 201 98.5 368.5t267.5 264t370 96.5q151 0 287 -57t235 -154t157 -232.5t58 -285.5t-58 -286.5t-157 -234.5t-235.5 -156t-286.5 -58t-286.5 58t-235 156t-156.5 234.5t-58 286.5zM119 725q0 -129 50.5 -247t136 -203.5t203.5 -136t247 -50.5q130 0 248 50.5 t204 136t136.5 203.5t50.5 247q0 173 -86 318.5t-233 229t-320 83.5q-129 0 -247 -49.5t-203.5 -133.5t-136 -201t-50.5 -247zM510 324v784q0 20 8.5 28.5t28.5 8.5h203q145 0 217.5 -51t72.5 -162q0 -150 -139 -205v-4q35 -12 57.5 -46.5t51.5 -105.5l94 -237q4 -16 4 -19 q0 -18 -51 -18h-13q-40 0 -47 18l-92 238q-27 69 -67 94t-113 25h-109v-348q0 -27 -49 -27h-8q-49 0 -49 27zM616 764h160q64 0 109 43.5t45 103.5q0 71 -43.5 106.5t-118.5 35.5h-152v-289z" />
<glyph unicode="&#xaf;" d="M55 1315v20q0 62 41 62h457q41 0 41 -62v-20q0 -62 -41 -62h-457q-41 0 -41 62z" />
<glyph unicode="&#xb0;" horiz-adv-x="706" d="M78 1174q0 113 79 192.5t191 79.5q113 0 193 -80t80 -192t-80 -191.5t-193 -79.5q-112 0 -191 79t-79 192zM178 1174q0 -74 50 -126.5t120 -52.5q71 0 121.5 53t50.5 126q0 74 -51 127t-121 53t-120 -53t-50 -127z" />
<glyph unicode="&#xb1;" horiz-adv-x="1146" d="M78 61v27q0 62 61 62h869q61 0 61 -62v-27q0 -61 -61 -61h-869q-61 0 -61 61zM98 731v14q0 62 62 62h346v346q0 61 61 61h15q61 0 61 -61v-346h344q62 0 62 -62v-14q0 -61 -62 -61h-344v-344q0 -62 -61 -62h-15q-29 0 -45 16.5t-16 45.5v344h-346q-29 0 -45.5 16 t-16.5 45z" />
<glyph unicode="&#xb2;" d="M72 662q0 12 4 20l305 383q53 72 66.5 102.5t13.5 69.5q0 56 -39.5 88.5t-108.5 32.5q-47 0 -86 -15t-61.5 -30t-28.5 -15q-9 0 -24 23t-15 37q0 34 75 60t138 26q117 0 184.5 -53.5t67.5 -147.5q0 -62 -23 -112t-100 -150l-233 -287h340q22 0 22 -35v-14q0 -35 -22 -35 h-451q-10 0 -17 16.5t-7 35.5z" />
<glyph unicode="&#xb3;" d="M88 668q0 16 15.5 37.5t25.5 21.5q2 0 63.5 -20.5t122.5 -20.5q30 0 58 8t54.5 25t43 50.5t16.5 78.5q0 87 -46 122.5t-132 35.5h-37q-24 0 -24 36v13q0 37 24 37h33q43 0 76 16t49.5 40.5t24.5 49t8 47.5q0 44 -32 79.5t-109 35.5q-47 0 -84.5 -10t-58.5 -19.5t-27 -9.5 q-10 0 -24.5 23.5t-14.5 37.5q0 25 74 44.5t137 19.5q110 0 175.5 -54t65.5 -157q0 -57 -35 -98t-88 -64v-8q60 -15 105 -72.5t45 -144.5q0 -65 -24.5 -115t-64.5 -78t-85 -41.5t-92 -13.5q-97 0 -167.5 22t-70.5 46z" />
<glyph unicode="&#xb4;" d="M152 1219q0 14 21.5 55.5t96.5 171.5q31 53 127 53q99 0 99 -26q0 -18 -106 -138q-52 -60 -87 -100q-34 -37 -104 -37q-47 0 -47 21z" />
<glyph unicode="&#xb5;" horiz-adv-x="1159" d="M174 -381v1411q0 45 82 45h8q82 0 82 -45v-694q0 -94 55 -146.5t154 -52.5q69 0 138 39t120 105v749q0 45 82 45h8q82 0 82 -45v-727q0 -47 2.5 -90t6.5 -71t7.5 -49.5t6 -33.5t2.5 -14q0 -25 -38.5 -36t-72.5 -11q-10 0 -18.5 4.5t-15 15t-11.5 18.5t-9.5 25.5 t-6.5 25.5t-6 28.5t-5 25.5q-65 -72 -149 -112.5t-170 -40.5q-87 0 -162 30v-399q0 -45 -82 -45h-8q-82 0 -82 45z" />
<glyph unicode="&#xb6;" horiz-adv-x="1054" d="M84 969q0 192 136.5 328.5t328.5 136.5h436q41 0 41 -50v-28q0 -26 -9.5 -37.5t-31.5 -11.5h-74v-1616q0 -45 -49 -45h-28q-50 0 -50 45v1616h-159v-1616q0 -45 -50 -45h-28q-49 0 -49 45v815q-175 20 -294.5 152.5t-119.5 310.5z" />
<glyph unicode="&#xb7;" horiz-adv-x="546" d="M184 737q0 44 30.5 75.5t74.5 31.5t75 -31.5t31 -75.5t-31 -74t-75 -30t-74.5 30t-30.5 74z" />
<glyph unicode="&#xb8;" d="M92 -342q0 53 39 53q11 0 68 -20.5t102 -20.5q117 0 117 72q0 31 -21 49.5t-46.5 24t-46.5 16.5t-21 29t39 139h88l-29 -100h8q23 0 47.5 -5t55.5 -18.5t51 -46t20 -78.5q0 -182 -235 -182q-79 0 -157.5 25t-78.5 63z" />
<glyph unicode="&#xb9;" horiz-adv-x="444" d="M84 1358q0 16 20 22l218 58q14 0 25 -7.5t11 -17.5v-776q0 -14 -14 -21.5t-31 -7.5h-10q-17 0 -30 7.5t-13 21.5v692l-151 -33q-12 0 -18.5 20.5t-6.5 41.5z" />
<glyph unicode="&#xba;" horiz-adv-x="690" d="M113 1171q0 132 60.5 203.5t174.5 71.5q111 0 170.5 -71t59.5 -204q0 -131 -59 -199.5t-171 -68.5q-115 0 -175 68.5t-60 199.5zM201 1174q0 -100 35 -148.5t108 -48.5q75 0 110 48.5t35 148.5q0 102 -35 150t-110 48q-74 0 -108.5 -47.5t-34.5 -150.5z" />
<glyph unicode="&#xbb;" horiz-adv-x="964" d="M111 193q0 16 16 38l227 297l-227 295q-16 22 -16 41q0 24 25 45t46 21q23 0 45 -25l267 -319q26 -33 26 -58q0 -24 -26 -57l-267 -319q-24 -27 -45 -27q-24 0 -47.5 24t-23.5 44zM463 193q0 16 16 38l228 297l-228 295q-16 22 -16 41q0 24 25.5 45t46.5 21q23 0 45 -25 l266 -319q26 -33 26 -58q0 -24 -26 -57l-266 -319q-24 -27 -45 -27q-24 0 -48 24t-24 44z" />
<glyph unicode="&#xbc;" horiz-adv-x="1374" d="M84 1358q0 16 20 22l218 58q14 0 25 -7.5t11 -17.5v-776q0 -14 -14 -21.5t-31 -7.5h-10q-17 0 -30 7.5t-13 21.5v692l-151 -33q-12 0 -18.5 20.5t-6.5 41.5zM184 10q0 9 9 21l831 1374q20 35 61 35h27q29 0 29 -15q0 -4 -8 -20l-832 -1374q-20 -35 -61 -35h-27 q-29 0 -29 14zM698 240q0 10 2 14l390 557q13 16 40 16h19q35 0 35 -26v-537h80q22 0 22 -35v-14q0 -37 -22 -37h-80v-155q0 -27 -35 -27h-27q-37 0 -37 27v155h-358q-9 0 -19 22t-10 40zM815 264h270v268l5 127l-7 5z" />
<glyph unicode="&#xbd;" horiz-adv-x="1527" d="M84 1358q0 16 20 22l218 58q14 0 25 -7.5t11 -17.5v-776q0 -14 -14 -21.5t-31 -7.5h-10q-17 0 -30 7.5t-13 21.5v692l-151 -33q-12 0 -18.5 20.5t-6.5 41.5zM184 10q0 9 9 21l831 1374q20 35 61 35h27q29 0 29 -15q0 -4 -8 -20l-832 -1374q-20 -35 -61 -35h-27 q-29 0 -29 14zM913 51q0 11 5 21l286 360q66 85 82.5 119.5t16.5 75.5q0 56 -39.5 88.5t-108.5 32.5q-47 0 -86 -15t-61.5 -30t-28.5 -15q-9 0 -24 23t-15 37q0 34 75 60t138 26q117 0 184.5 -53.5t67.5 -147.5q0 -60 -18.5 -105t-86.5 -135l-251 -309h340q22 0 22 -35v-14 q0 -35 -22 -35h-451q-10 0 -17.5 16.5t-7.5 34.5z" />
<glyph unicode="&#xbe;" horiz-adv-x="1511" d="M80 668q0 16 15.5 37.5t25.5 21.5q2 0 63.5 -20.5t122.5 -20.5q30 0 58 8t54.5 25t43 50.5t16.5 78.5q0 87 -46 122.5t-132 35.5h-37q-24 0 -24 36v13q0 37 24 37h33q43 0 76 16t49.5 40.5t24.5 49t8 47.5q0 44 -32.5 79.5t-109.5 35.5q-47 0 -84.5 -10t-58.5 -19.5 t-27 -9.5q-10 0 -24.5 23.5t-14.5 37.5q0 25 74 44.5t137 19.5q110 0 176 -54t66 -157q0 -57 -35 -98t-88 -64v-8q60 -15 105 -72.5t45 -144.5q0 -65 -24.5 -115t-65 -78t-85.5 -41.5t-92 -13.5q-97 0 -167 22t-70 46zM317 10q0 9 9 21l831 1374q20 35 62 35h26q29 0 29 -15 q0 -4 -8 -20l-832 -1374q-20 -35 -61 -35h-27q-29 0 -29 14zM840 240q0 10 2 14l389 557q13 16 41 16h18q35 0 35 -26v-537h80q22 0 22 -35v-14q0 -37 -22 -37h-80v-155q0 -27 -35 -27h-26q-37 0 -37 27v155h-359q-9 0 -18.5 22t-9.5 40zM956 264h271v268l4 127l-6 5z" />
<glyph unicode="&#xbf;" horiz-adv-x="870" d="M39 -31q0 76 38.5 148.5t95.5 131t114.5 115t103 122t53.5 130.5q3 21 18 31t50 10h31q61 0 61 -47q0 -70 -46 -155.5t-130 -169.5q-53 -53 -76.5 -78t-57.5 -67.5t-47.5 -77.5t-13.5 -72q0 -213 259 -213q56 0 112.5 17t93.5 34.5t47 17.5q15 0 40.5 -41t25.5 -63 q0 -49 -114.5 -83t-237.5 -34q-196 0 -308 99.5t-112 244.5zM436 895v135q0 45 82 45h35q82 0 82 -45v-135q0 -45 -82 -45h-35q-82 0 -82 45z" />
<glyph unicode="&#xc0;" horiz-adv-x="1255" d="M25 31q0 10 6 28l485 1346q11 33 82 33h59q71 0 82 -33l486 -1348q6 -15 6 -26q0 -35 -88 -35h-17q-71 0 -82 33l-120 336h-602l-117 -336q-11 -33 -82 -33h-10q-88 0 -88 35zM379 520h489l-215 610q-11 33 -24 119h-4q-16 -76 -31 -119zM387 1835q0 27 98 27 q95 0 127 -54q78 -136 98.5 -174.5t20.5 -52.5q0 -20 -47 -20q-71 0 -104 36q-169 193 -177 204q-16 22 -16 34z" />
<glyph unicode="&#xc1;" horiz-adv-x="1255" d="M25 31q0 10 6 28l485 1346q11 33 82 33h59q71 0 82 -33l486 -1348q6 -15 6 -26q0 -35 -88 -35h-17q-71 0 -82 33l-120 336h-602l-117 -336q-11 -33 -82 -33h-10q-88 0 -88 35zM379 520h489l-215 610q-11 33 -24 119h-4q-16 -76 -31 -119zM547 1581q0 14 20.5 52.5 t98.5 174.5q32 54 127 54q98 0 98 -27q0 -18 -106 -138q-52 -60 -87 -100q-33 -36 -104 -36q-47 0 -47 20z" />
<glyph unicode="&#xc2;" horiz-adv-x="1255" d="M25 31q0 10 6 28l485 1346q11 33 82 33h59q71 0 82 -33l486 -1348q6 -15 6 -26q0 -35 -88 -35h-17q-71 0 -82 33l-120 336h-602l-117 -336q-11 -33 -82 -33h-10q-88 0 -88 35zM379 520h489l-215 610q-11 33 -24 119h-4q-16 -76 -31 -119zM381 1571q0 16 12 37l115 180 q29 45 94 45h51q66 0 95 -45l116 -180q13 -20 13 -35q0 -31 -50 -31h-4q-37 0 -67 27l-129 151l-125 -151q-30 -27 -70 -27h-4q-47 0 -47 29z" />
<glyph unicode="&#xc3;" horiz-adv-x="1255" d="M25 31q0 10 6 28l485 1346q11 33 82 33h59q71 0 82 -33l486 -1348q6 -15 6 -26q0 -35 -88 -35h-17q-71 0 -82 33l-120 336h-602l-117 -336q-11 -33 -82 -33h-10q-88 0 -88 35zM275 1610.5q1 8.5 6 23.5q33 76 78.5 109t109.5 33t187.5 -44t168.5 -44q28 0 48.5 13 t41.5 46q26 40 62 25l16 -7q20 -7 23 -18.5t-8 -34.5q-33 -74 -78 -106.5t-109 -32.5q-67 0 -192.5 44t-169.5 44q-26 0 -45 -14t-41 -48q-15 -23 -26.5 -27.5t-31.5 3.5l-20 8q-12 5 -16.5 12t-3.5 15.5zM379 520h489l-215 610q-11 33 -24 119h-4q-16 -76 -31 -119z" />
<glyph unicode="&#xc4;" horiz-adv-x="1255" d="M25 31q0 10 6 28l485 1346q11 33 82 33h59q71 0 82 -33l486 -1348q6 -15 6 -26q0 -35 -88 -35h-17q-71 0 -82 33l-120 336h-602l-117 -336q-11 -33 -82 -33h-10q-88 0 -88 35zM379 520h489l-215 610q-11 33 -24 119h-4q-16 -76 -31 -119zM395 1651v104q0 45 90 45 q82 0 82 -45v-104q0 -45 -90 -45q-82 0 -82 45zM690 1651v104q0 45 90 45q82 0 82 -45v-104q0 -45 -90 -45q-82 0 -82 45z" />
<glyph unicode="&#xc5;" horiz-adv-x="1255" d="M25 31q0 10 6 28l485 1346q11 33 82 33h59q71 0 82 -33l486 -1348q6 -15 6 -26q0 -35 -88 -35h-17q-71 0 -82 33l-120 336h-602l-117 -336q-11 -33 -82 -33h-10q-88 0 -88 35zM379 520h489l-215 610q-11 33 -24 119h-4q-16 -76 -31 -119zM457 1690q0 72 50 123t122 51 t123 -51t51 -123t-51 -122t-123 -50t-122 50t-50 122zM528 1690q0 -43 29 -72t72 -29t72.5 29t29.5 72t-29.5 72.5t-72.5 29.5t-72 -29.5t-29 -72.5z" />
<glyph unicode="&#xc6;" horiz-adv-x="1873" d="M-23 31q0 14 9 32l657 1315q26 56 88 56h911q41 0 41 -62v-33q0 -61 -41 -61h-741l103 -467h577q41 0 41 -61v-33q0 -62 -41 -62h-545l109 -499h500q41 0 41 -62v-33q0 -61 -41 -61h-588q-62 0 -74 59l-65 306h-605l-163 -336q-17 -33 -82 -33h-11q-80 0 -80 35zM393 518 h490l-131 612l-9 119h-4l-43 -119z" />
<glyph unicode="&#xc7;" horiz-adv-x="1267" d="M117 717q0 729 663 729q147 0 269 -42t122 -85q0 -28 -25 -73.5t-44 -45.5q-6 0 -32.5 14t-61 31t-96 31t-128.5 14q-248 0 -364.5 -137.5t-116.5 -437.5q0 -294 115.5 -433t357.5 -139q72 0 139.5 16t106 35.5t69 35.5t37.5 16q19 0 45.5 -45t26.5 -66q0 -28 -53 -61.5 t-152.5 -59t-210.5 -26.5l-24 -88h8q23 0 47.5 -5t55.5 -18.5t51 -46t20 -78.5q0 -182 -235 -182q-79 0 -157.5 25t-78.5 63q0 53 39 53q11 0 68 -20.5t102 -20.5q117 0 117 72q0 31 -21 49.5t-46.5 24t-46.5 16.5t-21 29q0 22 34 129q-295 20 -437 198t-142 529z" />
<glyph unicode="&#xc8;" horiz-adv-x="1118" d="M199 61v1311q0 32 14.5 47t46.5 15h715q41 0 41 -62v-33q0 -61 -41 -61h-596v-467h534q41 0 41 -61v-33q0 -62 -41 -62h-534v-499h598q41 0 41 -62v-33q0 -61 -41 -61h-717q-32 0 -46.5 14.5t-14.5 46.5zM365 1835q0 27 98 27q95 0 127 -54q78 -136 98.5 -174.5 t20.5 -52.5q0 -20 -47 -20q-72 0 -105 36q-30 34 -76 87q-80 91 -98 114t-18 37z" />
<glyph unicode="&#xc9;" horiz-adv-x="1118" d="M199 61v1311q0 32 14.5 47t46.5 15h715q41 0 41 -62v-33q0 -61 -41 -61h-596v-467h534q41 0 41 -61v-33q0 -62 -41 -62h-534v-499h598q41 0 41 -62v-33q0 -61 -41 -61h-717q-32 0 -46.5 14.5t-14.5 46.5zM524 1581q0 14 20.5 52.5t98.5 174.5q32 54 127 54q98 0 98 -27 q0 -14 -17 -36t-99 -115q-46 -53 -76 -87q-33 -36 -105 -36q-47 0 -47 20z" />
<glyph unicode="&#xca;" horiz-adv-x="1118" d="M199 61v1311q0 32 14.5 47t46.5 15h715q41 0 41 -62v-33q0 -61 -41 -61h-596v-467h534q41 0 41 -61v-33q0 -62 -41 -62h-534v-499h598q41 0 41 -62v-33q0 -61 -41 -61h-717q-32 0 -46.5 14.5t-14.5 46.5zM358 1571q0 14 13 37l114 180q29 45 95 45h51q65 0 94 -45 l117 -180q12 -18 12 -35q0 -31 -49 -31h-4q-38 0 -68 27l-129 151l-125 -151q-30 -27 -69 -27h-4q-48 0 -48 29z" />
<glyph unicode="&#xcb;" horiz-adv-x="1118" d="M199 61v1311q0 32 14.5 47t46.5 15h715q41 0 41 -62v-33q0 -61 -41 -61h-596v-467h534q41 0 41 -61v-33q0 -62 -41 -62h-534v-499h598q41 0 41 -62v-33q0 -61 -41 -61h-717q-32 0 -46.5 14.5t-14.5 46.5zM373 1651v104q0 45 90 45q82 0 82 -45v-104q0 -45 -90 -45 q-82 0 -82 45zM668 1651v104q0 45 90 45q82 0 82 -45v-104q0 -45 -90 -45q-82 0 -82 45z" />
<glyph unicode="&#xcc;" horiz-adv-x="577" d="M47 1835q0 27 98 27q95 0 127 -54q78 -136 98.5 -174.5t20.5 -52.5q0 -20 -47 -20q-71 0 -104 36q-169 193 -177 204q-16 21 -16 34zM199 41v1352q0 45 82 45h16q82 0 82 -45v-1352q0 -45 -82 -45h-16q-82 0 -82 45z" />
<glyph unicode="&#xcd;" horiz-adv-x="577" d="M199 41v1352q0 45 82 45h16q82 0 82 -45v-1352q0 -45 -82 -45h-16q-82 0 -82 45zM207 1581q0 14 20.5 52.5t98.5 174.5q32 54 127 54q98 0 98 -27q0 -18 -106 -138q-52 -60 -87 -100q-33 -36 -104 -36q-47 0 -47 20z" />
<glyph unicode="&#xce;" horiz-adv-x="577" d="M41 1571q0 16 12 37l115 180q29 45 94 45h51q66 0 95 -45l116 -180q13 -20 13 -35q0 -31 -50 -31h-4q-37 0 -67 27l-129 151l-125 -151q-30 -27 -70 -27h-4q-47 0 -47 29zM199 41v1352q0 45 82 45h16q82 0 82 -45v-1352q0 -45 -82 -45h-16q-82 0 -82 45z" />
<glyph unicode="&#xcf;" horiz-adv-x="577" d="M55 1651v104q0 45 90 45q82 0 82 -45v-104q0 -45 -90 -45q-82 0 -82 45zM199 41v1352q0 45 82 45h16q82 0 82 -45v-1352q0 -45 -82 -45h-16q-82 0 -82 45zM350 1651v104q0 45 90 45q82 0 82 -45v-104q0 -45 -90 -45q-82 0 -82 45z" />
<glyph unicode="&#xd0;" horiz-adv-x="1425" d="M0 717v33q0 61 41 61h133v561q0 62 62 62h440q109 0 202 -23.5t174 -77t138 -135t90 -204t33 -277.5q0 -156 -33 -278.5t-90 -204t-138.5 -135t-174 -76.5t-201.5 -23h-440q-32 0 -47 14.5t-15 46.5v594h-133q-41 0 -41 62zM354 156h308q100 0 181.5 31t146 95t100.5 175 t36 260q0 148 -36 259t-100.5 175.5t-146.5 95.5t-181 31h-308v-467h226q41 0 41 -61v-33q0 -62 -41 -62h-226v-499z" />
<glyph unicode="&#xd1;" horiz-adv-x="1472" d="M184 41v1352q0 45 82 45h43q34 0 52.5 -8.5t33.5 -30.5l654 -987l61 -115v1096q0 45 82 45h14q82 0 82 -45v-1352q0 -45 -82 -45h-41q-52 0 -71 29l-676 1019l-56 105v-1108q0 -45 -81 -45h-15q-82 0 -82 45zM383 1610.5q1 8.5 6 23.5q61 142 189 142q64 0 187.5 -44 t168.5 -44q28 0 48.5 13t41.5 46q15 23 29 28t32 -3l17 -7q20 -7 22.5 -18.5t-8.5 -34.5q-33 -75 -78 -107t-108 -32q-67 0 -193 44t-170 44q-26 0 -45 -14t-41 -48q-15 -23 -26 -27.5t-31 3.5l-21 8q-12 5 -16.5 12t-3.5 15.5z" />
<glyph unicode="&#xd2;" horiz-adv-x="1497" d="M117 721q0 358 161 541.5t470 183.5q310 0 471 -183.5t161 -541.5q0 -359 -161.5 -546t-470.5 -187q-308 0 -469.5 187t-161.5 546zM303 721q0 -282 114 -430t331 -148t331.5 148t114.5 430q0 281 -114 425t-332 144t-331.5 -144t-113.5 -425zM508 1835q0 27 98 27 q95 0 127 -54q78 -136 98.5 -174.5t20.5 -52.5q0 -20 -47 -20q-72 0 -105 36q-30 34 -76 87q-80 91 -98 114t-18 37z" />
<glyph unicode="&#xd3;" horiz-adv-x="1497" d="M117 721q0 358 161 541.5t470 183.5q310 0 471 -183.5t161 -541.5q0 -359 -161.5 -546t-470.5 -187q-308 0 -469.5 187t-161.5 546zM303 721q0 -282 114 -430t331 -148t331.5 148t114.5 430q0 281 -114 425t-332 144t-331.5 -144t-113.5 -425zM668 1581q0 14 21.5 55.5 t96.5 171.5q32 54 127 54q99 0 99 -27q0 -18 -106 -138q-52 -60 -87 -100q-33 -36 -104 -36q-47 0 -47 20z" />
<glyph unicode="&#xd4;" horiz-adv-x="1497" d="M117 721q0 358 161 541.5t470 183.5q310 0 471 -183.5t161 -541.5q0 -359 -161.5 -546t-470.5 -187q-308 0 -469.5 187t-161.5 546zM303 721q0 -282 114 -430t331 -148t331.5 148t114.5 430q0 281 -114 425t-332 144t-331.5 -144t-113.5 -425zM502 1571q0 16 12 37 l115 180q29 45 94 45h51q65 0 94 -45l117 -180q12 -18 12 -35q0 -31 -49 -31h-4q-37 0 -67 27l-129 151l-125 -151q-30 -27 -70 -27h-4q-47 0 -47 29z" />
<glyph unicode="&#xd5;" horiz-adv-x="1497" d="M117 721q0 358 161 541.5t470 183.5q310 0 471 -183.5t161 -541.5q0 -359 -161.5 -546t-470.5 -187q-308 0 -469.5 187t-161.5 546zM303 721q0 -282 114 -430t331 -148t331.5 148t114.5 430q0 281 -114 425t-332 144t-331.5 -144t-113.5 -425zM395.5 1602q-2.5 12 5.5 32 q61 142 189 142q64 0 187.5 -44t168.5 -44q28 0 48.5 13t41.5 46q26 40 62 25l16 -7q20 -7 22.5 -18.5t-8.5 -34.5q-33 -75 -78 -107t-108 -32q-67 0 -192.5 44t-169.5 44q-26 0 -45 -14t-41 -48q-15 -23 -26.5 -27.5t-31.5 3.5l-20 8q-18 7 -20.5 19z" />
<glyph unicode="&#xd6;" horiz-adv-x="1497" d="M117 721q0 358 161 541.5t470 183.5q310 0 471 -183.5t161 -541.5q0 -359 -161.5 -546t-470.5 -187q-308 0 -469.5 187t-161.5 546zM303 721q0 -282 114 -430t331 -148t331.5 148t114.5 430q0 281 -114 425t-332 144t-331.5 -144t-113.5 -425zM516 1651v104q0 45 90 45 q82 0 82 -45v-104q0 -45 -90 -45q-82 0 -82 45zM811 1651v104q0 45 90 45q82 0 82 -45v-104q0 -45 -90 -45q-82 0 -82 45z" />
<glyph unicode="&#xd7;" horiz-adv-x="1146" d="M111 86q0 13 16 29l350 352l-350 350q-16 16 -16 29q0 12 16 28l39 41q15 15 29 15q13 0 28 -15l350 -352l351 352q15 15 28 15q14 0 29 -15l39 -41q14 -14 14 -28q0 -15 -14 -29l-350 -350l350 -352q14 -14 14 -29t-14 -29l-39 -41q-16 -16 -29 -16q-12 0 -28 16 l-351 355l-350 -355q-16 -16 -28 -16q-13 0 -29 16l-39 41q-16 16 -16 29z" />
<glyph unicode="&#xd8;" horiz-adv-x="1497" d="M70 45q0 14 12 29l149 164q-114 182 -114 483q0 358 161 541.5t470 183.5q274 0 436 -150l112 125q14 17 29 17q13 0 29 -14.5t16 -26.5q0 -14 -12 -29l-119 -131q141 -185 141 -516q0 -359 -161.5 -546t-470.5 -187q-308 0 -467 184l-138 -152q-15 -18 -28 -18 q-14 0 -29.5 15t-15.5 28zM303 721q0 -202 59 -338l701 780q-112 127 -315 127q-218 0 -331.5 -144t-113.5 -425zM403 309q111 -166 345 -166q217 0 331.5 148t114.5 430q0 235 -82 377z" />
<glyph unicode="&#xd9;" horiz-adv-x="1458" d="M170 459v934q0 45 82 45h16q82 0 82 -45v-940q0 -136 107.5 -223t271.5 -87t271.5 87.5t107.5 222.5v940q0 45 82 45h16q82 0 82 -45v-934q0 -223 -145.5 -347t-413.5 -124q-269 0 -414 124t-145 347zM487 1835q0 27 99 27q95 0 127 -54q75 -130 96.5 -171.5t21.5 -55.5 q0 -20 -47 -20q-71 0 -104 36q-169 193 -177 204q-16 22 -16 34z" />
<glyph unicode="&#xda;" horiz-adv-x="1458" d="M170 459v934q0 45 82 45h16q82 0 82 -45v-940q0 -136 107.5 -223t271.5 -87t271.5 87.5t107.5 222.5v940q0 45 82 45h16q82 0 82 -45v-934q0 -223 -145.5 -347t-413.5 -124q-269 0 -414 124t-145 347zM647 1581q0 14 20.5 52.5t98.5 174.5q32 54 127 54q98 0 98 -27 q0 -14 -17 -36t-99 -115q-46 -53 -76 -87q-33 -36 -105 -36q-47 0 -47 20z" />
<glyph unicode="&#xdb;" horiz-adv-x="1458" d="M170 459v934q0 45 82 45h16q82 0 82 -45v-940q0 -136 107.5 -223t271.5 -87t271.5 87.5t107.5 222.5v940q0 45 82 45h16q82 0 82 -45v-934q0 -223 -145.5 -347t-413.5 -124q-269 0 -414 124t-145 347zM481 1571q0 14 13 37l114 180q29 45 94 45h52q65 0 94 -45l117 -180 q12 -18 12 -35q0 -31 -49 -31h-4q-38 0 -68 27l-129 151l-125 -151q-30 -27 -70 -27h-4q-47 0 -47 29z" />
<glyph unicode="&#xdc;" horiz-adv-x="1458" d="M170 459v934q0 45 82 45h16q82 0 82 -45v-940q0 -136 107.5 -223t271.5 -87t271.5 87.5t107.5 222.5v940q0 45 82 45h16q82 0 82 -45v-934q0 -223 -145.5 -347t-413.5 -124q-269 0 -414 124t-145 347zM496 1651v104q0 45 90 45q82 0 82 -45v-104q0 -45 -90 -45 q-82 0 -82 45zM791 1651v104q0 45 90 45q82 0 82 -45v-104q0 -45 -91 -45q-81 0 -81 45z" />
<glyph unicode="&#xdd;" horiz-adv-x="1144" d="M37 1403q0 35 94 35h23q68 0 88 -31l336 -504l344 506q18 29 92 29h14q80 -3 80 -35q0 -9 -16 -37l-430 -637v-688q0 -45 -82 -45h-17q-82 0 -82 45v694l-428 631q-16 22 -16 37zM492 1581q0 14 21.5 55.5t96.5 171.5q32 54 127 54q99 0 99 -27q0 -18 -106 -138 q-52 -60 -87 -100q-33 -36 -104 -36q-47 0 -47 20z" />
<glyph unicode="&#xde;" horiz-adv-x="1161" d="M174 41v1352q0 45 82 45h16q82 0 82 -45v-209h297q60 0 115.5 -8t120.5 -34t111.5 -68.5t78 -117.5t31.5 -174q0 -77 -19 -141t-48.5 -106.5t-71 -75.5t-81.5 -51t-83.5 -29.5t-74.5 -15t-58 -3.5h-318v-319q0 -45 -82 -45h-16q-82 0 -82 45zM354 516h320q37 0 74.5 11 t79 37.5t68 83t26.5 134.5q0 58 -17.5 103t-45 71.5t-65.5 43t-73.5 22.5t-75.5 6h-291v-512z" />
<glyph unicode="&#xdf;" horiz-adv-x="1134" d="M184 41v1026q0 168 111 273.5t293 105.5q87 0 158 -18.5t127.5 -57.5t88 -108.5t31.5 -163.5q0 -91 -58.5 -178.5t-150.5 -126.5v-7q128 -30 198.5 -129.5t70.5 -234.5q0 -198 -125 -310t-316 -112h-65q-41 0 -41 61v25q0 61 41 61h67q111 0 184.5 74t73.5 201 q0 126 -73.5 200t-184.5 74h-67q-41 0 -41 62v24q0 62 41 62h20q96 0 170 69.5t74 167.5q0 63 -19.5 107.5t-54 67.5t-71.5 32.5t-82 9.5q-105 0 -166.5 -62t-61.5 -169v-1026q0 -45 -82 -45h-8q-82 0 -82 45z" />
<glyph unicode="&#xe0;" horiz-adv-x="1116" d="M100 295q0 56 13.5 103.5t35.5 82.5t58 63.5t73 47.5t88.5 33t96 21.5t104 12.5t105 6.5t106.5 2.5v96q0 77 -53 124.5t-172 47.5q-82 0 -156.5 -21.5t-116.5 -43t-46 -21.5q-20 0 -46 41t-26 61q0 27 52 57t144 52t189 22q191 0 297 -84.5t106 -236.5v-459 q0 -47 2.5 -90t6 -71t7.5 -49.5t6.5 -33.5t2.5 -14q0 -25 -38.5 -36t-72.5 -11q-10 0 -18.5 4.5t-15 14.5t-11 19t-9 25.5t-6.5 26l-6 28.5t-5 25q-139 -153 -344 -153q-157 0 -254 77.5t-97 229.5zM285 305q0 -82 44 -125t130 -43q102 0 173.5 37t147.5 105v241 q-208 -2 -297 -21q-198 -42 -198 -194zM317 1473q0 26 99 26q96 0 127 -53q78 -136 98.5 -174.5t20.5 -52.5q0 -21 -48 -21q-70 0 -104 37q-169 193 -177 204q-16 22 -16 34z" />
<glyph unicode="&#xe1;" horiz-adv-x="1116" d="M100 295q0 56 13.5 103.5t35.5 82.5t58 63.5t73 47.5t88.5 33t96 21.5t104 12.5t105 6.5t106.5 2.5v96q0 77 -53 124.5t-172 47.5q-82 0 -156.5 -21.5t-116.5 -43t-46 -21.5q-20 0 -46 41t-26 61q0 27 52 57t144 52t189 22q191 0 297 -84.5t106 -236.5v-459 q0 -47 2.5 -90t6 -71t7.5 -49.5t6.5 -33.5t2.5 -14q0 -25 -38.5 -36t-72.5 -11q-10 0 -18.5 4.5t-15 14.5t-11 19t-9 25.5t-6.5 26l-6 28.5t-5 25q-139 -153 -344 -153q-157 0 -254 77.5t-97 229.5zM285 305q0 -82 44 -125t130 -43q102 0 173.5 37t147.5 105v241 q-208 -2 -297 -21q-198 -42 -198 -194zM477 1219q0 14 20.5 52.5t98.5 174.5q31 53 127 53q98 0 98 -26q0 -14 -17 -36t-99 -115q-46 -53 -76 -87q-34 -37 -105 -37q-47 0 -47 21z" />
<glyph unicode="&#xe2;" horiz-adv-x="1116" d="M100 295q0 56 13.5 103.5t35.5 82.5t58 63.5t73 47.5t88.5 33t96 21.5t104 12.5t105 6.5t106.5 2.5v96q0 77 -53 124.5t-172 47.5q-82 0 -156.5 -21.5t-116.5 -43t-46 -21.5q-20 0 -46 41t-26 61q0 27 52 57t144 52t189 22q191 0 297 -84.5t106 -236.5v-459 q0 -47 2.5 -90t6 -71t7.5 -49.5t6.5 -33.5t2.5 -14q0 -25 -38.5 -36t-72.5 -11q-10 0 -18.5 4.5t-15 14.5t-11 19t-9 25.5t-6.5 26l-6 28.5t-5 25q-139 -153 -344 -153q-157 0 -254 77.5t-97 229.5zM285 305q0 -82 44 -125t130 -43q102 0 173.5 37t147.5 105v241 q-208 -2 -297 -21q-198 -42 -198 -194zM311 1208q0 14 13 37l114 180q29 45 94 45h52q65 0 94 -45l117 -180q12 -18 12 -35q0 -30 -49 -30h-4q-39 0 -68 26l-129 152l-125 -152q-29 -26 -70 -26h-4q-47 0 -47 28z" />
<glyph unicode="&#xe3;" horiz-adv-x="1116" d="M100 295q0 56 13.5 103.5t35.5 82.5t58 63.5t73 47.5t88.5 33t96 21.5t104 12.5t105 6.5t106.5 2.5v96q0 77 -53 124.5t-172 47.5q-82 0 -156.5 -21.5t-116.5 -43t-46 -21.5q-20 0 -46 41t-26 61q0 27 52 57t144 52t189 22q191 0 297 -84.5t106 -236.5v-459 q0 -47 2.5 -90t6 -71t7.5 -49.5t6.5 -33.5t2.5 -14q0 -25 -38.5 -36t-72.5 -11q-10 0 -18.5 4.5t-15 14.5t-11 19t-9 25.5t-6.5 26l-6 28.5t-5 25q-139 -153 -344 -153q-157 0 -254 77.5t-97 229.5zM205 1248.5q1 8.5 6 23.5q33 76 78.5 108.5t109.5 32.5t188 -44t169 -44 q28 0 48.5 13t41.5 46q15 23 29 28t32 -3l17 -6q20 -7 22.5 -18.5t-8.5 -34.5q-33 -75 -78 -107.5t-108 -32.5q-67 0 -193 44t-170 44q-26 0 -45 -13.5t-41 -47.5q-15 -23 -26 -28t-31 3l-21 9q-12 5 -16.5 12t-3.5 15.5zM285 305q0 -82 44 -125t130 -43q102 0 173.5 37 t147.5 105v241q-208 -2 -297 -21q-198 -42 -198 -194z" />
<glyph unicode="&#xe4;" horiz-adv-x="1116" d="M100 295q0 56 13.5 103.5t35.5 82.5t58 63.5t73 47.5t88.5 33t96 21.5t104 12.5t105 6.5t106.5 2.5v96q0 77 -53 124.5t-172 47.5q-82 0 -156.5 -21.5t-116.5 -43t-46 -21.5q-20 0 -46 41t-26 61q0 27 52 57t144 52t189 22q191 0 297 -84.5t106 -236.5v-459 q0 -47 2.5 -90t6 -71t7.5 -49.5t6.5 -33.5t2.5 -14q0 -25 -38.5 -36t-72.5 -11q-10 0 -18.5 4.5t-15 14.5t-11 19t-9 25.5t-6.5 26l-6 28.5t-5 25q-139 -153 -344 -153q-157 0 -254 77.5t-97 229.5zM285 305q0 -82 44 -125t130 -43q102 0 173.5 37t147.5 105v241 q-208 -2 -297 -21q-198 -42 -198 -194zM326 1288v105q0 45 90 45q82 0 82 -45v-105q0 -45 -90 -45q-82 0 -82 45zM621 1288v105q0 45 90 45q82 0 82 -45v-105q0 -45 -91 -45q-81 0 -81 45z" />
<glyph unicode="&#xe5;" horiz-adv-x="1116" d="M100 295q0 56 13.5 103.5t35.5 82.5t58 63.5t73 47.5t88.5 33t96 21.5t104 12.5t105 6.5t106.5 2.5v96q0 77 -53 124.5t-172 47.5q-82 0 -156.5 -21.5t-116.5 -43t-46 -21.5q-20 0 -46 41t-26 61q0 27 52 57t144 52t189 22q191 0 297 -84.5t106 -236.5v-459 q0 -47 2.5 -90t6 -71t7.5 -49.5t6.5 -33.5t2.5 -14q0 -25 -38.5 -36t-72.5 -11q-10 0 -18.5 4.5t-15 14.5t-11 19t-9 25.5t-6.5 26l-6 28.5t-5 25q-139 -153 -344 -153q-157 0 -254 77.5t-97 229.5zM285 305q0 -82 44 -125t130 -43q102 0 173.5 37t147.5 105v241 q-208 -2 -297 -21q-198 -42 -198 -194zM387 1327q0 72 50 123t122 51t123 -51t51 -123t-51 -122t-123 -50t-122 50t-50 122zM459 1327q0 -43 28.5 -71.5t71.5 -28.5t73 29t30 71q0 43 -30 73t-73 30q-42 0 -71 -30t-29 -73z" />
<glyph unicode="&#xe6;" horiz-adv-x="1697" d="M92 295q0 61 18.5 110.5t48.5 84.5t77 61t96 41.5t113.5 26t120.5 14.5t126 6q12 126 58 213q-53 84 -203 84q-82 0 -156.5 -21.5t-117 -43t-46.5 -21.5q-20 0 -45.5 41t-25.5 61q0 27 52 57t144 52t189 22q202 0 311 -98q116 98 311 98q209 0 315.5 -128.5t106.5 -376.5 q0 -20 -24.5 -52t-42.5 -32h-648q12 -186 88 -272.5t228 -86.5q61 0 118.5 13.5t91 29.5t59 29.5t30.5 13.5q20 0 45.5 -41t25.5 -61q0 -25 -47.5 -55.5t-135.5 -53t-185 -22.5q-252 0 -375 129q-155 -129 -371 -129q-157 0 -253.5 77.5t-96.5 229.5zM276 305 q0 -82 44.5 -125t130.5 -43t152 28t130 79q-44 103 -47 248q-86 -2 -149 -9t-127.5 -25.5t-99 -57t-34.5 -95.5zM870 641h533q0 295 -246 295q-266 0 -287 -295z" />
<glyph unicode="&#xe7;" horiz-adv-x="993" d="M106 541q0 124 28.5 220.5t74.5 156t110.5 97.5t131 53t141.5 15q119 0 213 -28.5t94 -65.5q0 -27 -23 -68.5t-42 -41.5q-2 0 -5 1t-8 3l-10 4q-113 49 -223 49q-297 0 -297 -391q0 -218 72.5 -314t244.5 -96q123 0 232 53q5 2 10.5 4t8 3.5t3.5 1.5q20 0 45 -40.5 t25 -64.5q0 -35 -90 -68t-211 -36l-25 -88h8q23 0 47.5 -5t55.5 -18.5t51 -46t20 -78.5q0 -182 -235 -182q-79 0 -157.5 25t-78.5 63q0 53 39 53q11 0 68 -20.5t102 -20.5q117 0 117 72q0 31 -21 49.5t-46.5 24t-46.5 16.5t-21 29t35 129q-220 15 -328.5 147t-108.5 404z " />
<glyph unicode="&#xe8;" horiz-adv-x="1103" d="M113 528q0 272 121.5 413.5t355.5 141.5q210 0 316 -136t106 -398q0 -20 -25 -52t-43 -32h-647q12 -171 87.5 -250.5t227.5 -79.5q61 0 118.5 13.5t91 29.5t59 29.5t30.5 13.5q20 0 46 -41t26 -61q0 -19 -29 -41.5t-77 -42.5t-118.5 -33.5t-144.5 -13.5 q-255 0 -378 132.5t-123 407.5zM297 612h532q0 324 -245 324q-266 0 -287 -324zM311 1473q0 26 99 26q96 0 127 -53q75 -130 96.5 -171.5t21.5 -55.5q0 -21 -47 -21q-70 0 -104 37q-169 193 -177 204q-16 22 -16 34z" />
<glyph unicode="&#xe9;" horiz-adv-x="1103" d="M113 528q0 272 121.5 413.5t355.5 141.5q210 0 316 -136t106 -398q0 -20 -25 -52t-43 -32h-647q12 -171 87.5 -250.5t227.5 -79.5q61 0 118.5 13.5t91 29.5t59 29.5t30.5 13.5q20 0 46 -41t26 -61q0 -19 -29 -41.5t-77 -42.5t-118.5 -33.5t-144.5 -13.5 q-255 0 -378 132.5t-123 407.5zM297 612h532q0 324 -245 324q-266 0 -287 -324zM471 1219q0 14 20.5 52.5t98.5 174.5q31 53 127 53q98 0 98 -26q0 -14 -17 -36t-99 -115q-46 -53 -76 -87q-34 -37 -105 -37q-47 0 -47 21z" />
<glyph unicode="&#xea;" horiz-adv-x="1103" d="M113 528q0 272 121.5 413.5t355.5 141.5q210 0 316 -136t106 -398q0 -20 -25 -52t-43 -32h-647q12 -171 87.5 -250.5t227.5 -79.5q61 0 118.5 13.5t91 29.5t59 29.5t30.5 13.5q20 0 46 -41t26 -61q0 -19 -29 -41.5t-77 -42.5t-118.5 -33.5t-144.5 -13.5 q-255 0 -378 132.5t-123 407.5zM297 612h532q0 324 -245 324q-266 0 -287 -324zM305 1208q0 16 12 37l115 180q29 45 94 45h52q65 0 94 -45l116 -180q13 -19 13 -35q0 -30 -49 -30h-4q-39 0 -68 26l-129 152l-125 -152q-29 -26 -70 -26h-4q-47 0 -47 28z" />
<glyph unicode="&#xeb;" horiz-adv-x="1103" d="M113 528q0 272 121.5 413.5t355.5 141.5q210 0 316 -136t106 -398q0 -20 -25 -52t-43 -32h-647q12 -171 87.5 -250.5t227.5 -79.5q61 0 118.5 13.5t91 29.5t59 29.5t30.5 13.5q20 0 46 -41t26 -61q0 -19 -29 -41.5t-77 -42.5t-118.5 -33.5t-144.5 -13.5 q-255 0 -378 132.5t-123 407.5zM297 612h532q0 324 -245 324q-266 0 -287 -324zM319 1288v105q0 45 91 45q82 0 82 -45v-105q0 -45 -91 -45q-82 0 -82 45zM614 1288v105q0 45 91 45q81 0 81 -45v-105q0 -45 -90 -45q-82 0 -82 45z" />
<glyph unicode="&#xec;" horiz-adv-x="542" d="M31 1473q0 26 98 26q96 0 127 -53q78 -136 98.5 -174.5t20.5 -52.5q0 -21 -47 -21q-71 0 -105 37q-30 34 -76 87q-80 91 -98 114t-18 37zM186 41v989q0 45 82 45h8q82 0 82 -45v-989q0 -45 -82 -45h-8q-82 0 -82 45z" />
<glyph unicode="&#xed;" horiz-adv-x="542" d="M186 41v989q0 45 82 45h8q82 0 82 -45v-989q0 -45 -82 -45h-8q-82 0 -82 45zM190 1219q0 14 20.5 52.5t98.5 174.5q31 53 127 53q99 0 99 -26q0 -18 -106 -138q-52 -60 -87 -100q-34 -37 -104 -37q-48 0 -48 21z" />
<glyph unicode="&#xee;" horiz-adv-x="542" d="M25 1208q0 16 12 37l115 180q29 45 94 45h51q65 0 94 -45l117 -180q12 -18 12 -35q0 -30 -49 -30h-4q-39 0 -68 26l-129 152l-125 -152q-29 -26 -69 -26h-4q-47 0 -47 28zM186 41v989q0 45 82 45h8q82 0 82 -45v-989q0 -45 -82 -45h-8q-82 0 -82 45z" />
<glyph unicode="&#xef;" horiz-adv-x="542" d="M39 1288v105q0 45 90 45q82 0 82 -45v-105q0 -45 -90 -45q-82 0 -82 45zM186 41v989q0 45 82 45h8q82 0 82 -45v-989q0 -45 -82 -45h-8q-82 0 -82 45zM334 1288v105q0 45 90 45q82 0 82 -45v-105q0 -45 -90 -45q-82 0 -82 45z" />
<glyph unicode="&#xf0;" horiz-adv-x="1165" d="M113 530q0 266 123 409.5t352 143.5q90 0 164 -24q-45 98 -95 184q-175 -24 -176 -24q-21 0 -37 21t-16 44q0 21 31 27l147 20q-53 77 -53 99t33 28q28 4 55 4q32 0 53 -24q60 -75 68 -86l160 22q25 0 38 -24.5t13 -40.5q0 -24 -31 -27l-123 -16q234 -367 234 -736 q0 -266 -118 -404t-347 -138q-232 0 -353.5 139t-121.5 403zM289 535q0 -204 71.5 -302t221.5 -98t221 97.5t71 302.5t-71 303t-221 98q-149 0 -221 -98t-72 -303z" />
<glyph unicode="&#xf1;" horiz-adv-x="1140" d="M152 1018q0 25 38 36t72 11q10 0 18.5 -4t15 -14t11.5 -18t9.5 -24t6.5 -24.5t6 -27t5 -23.5q65 72 149 112.5t170 40.5q157 0 245.5 -88t88.5 -243v-711q0 -45 -82 -45h-8q-82 0 -82 45v694q0 94 -55 146.5t-154 52.5q-69 0 -138 -38.5t-120 -104.5v-750q0 -45 -82 -45 h-8q-82 0 -82 45v719q0 47 -2.5 90t-6 71t-7 49.5t-6 33.5t-2.5 14zM217.5 1240q-2.5 12 5.5 32q33 75 79 108t110 33t187.5 -44t168.5 -44q28 0 48.5 13t41.5 46q26 40 62 25l16 -6q20 -7 22.5 -18.5t-8.5 -34.5q-33 -75 -78 -107.5t-108 -32.5q-67 0 -193 44t-170 44 q-26 0 -45 -13.5t-41 -47.5q-15 -23 -26 -28t-31 3l-20 9q-18 7 -20.5 19z" />
<glyph unicode="&#xf2;" horiz-adv-x="1165" d="M113 530q0 266 123 409.5t352 143.5q225 0 345 -143t120 -410q0 -266 -118 -404t-347 -138q-232 0 -353.5 139t-121.5 403zM293 535q0 -205 69.5 -302.5t219.5 -97.5t221 97.5t71 302.5t-71 303t-221 98q-149 0 -219 -97.5t-70 -303.5zM342 1473q0 26 98 26q96 0 127 -53 q78 -136 98.5 -174.5t20.5 -52.5q0 -21 -47 -21q-70 0 -104 37q-169 193 -177 204q-16 22 -16 34z" />
<glyph unicode="&#xf3;" horiz-adv-x="1165" d="M113 530q0 266 123 409.5t352 143.5q225 0 345 -143t120 -410q0 -266 -118 -404t-347 -138q-232 0 -353.5 139t-121.5 403zM293 535q0 -205 69.5 -302.5t219.5 -97.5t221 97.5t71 302.5t-71 303t-221 98q-149 0 -219 -97.5t-70 -303.5zM502 1219q0 14 20.5 52.5 t98.5 174.5q31 53 127 53q98 0 98 -26q0 -18 -106 -138q-52 -60 -87 -100q-34 -37 -104 -37q-47 0 -47 21z" />
<glyph unicode="&#xf4;" horiz-adv-x="1165" d="M113 530q0 266 123 409.5t352 143.5q225 0 345 -143t120 -410q0 -266 -118 -404t-347 -138q-232 0 -353.5 139t-121.5 403zM293 535q0 -205 69.5 -302.5t219.5 -97.5t221 97.5t71 302.5t-71 303t-221 98q-149 0 -219 -97.5t-70 -303.5zM336 1208q0 16 12 37l115 180 q29 45 94 45h51q65 0 94 -45l117 -180q12 -18 12 -35q0 -30 -49 -30h-4q-38 0 -67 26l-129 152l-125 -152q-29 -26 -70 -26h-4q-47 0 -47 28z" />
<glyph unicode="&#xf5;" horiz-adv-x="1165" d="M113 530q0 266 123 409.5t352 143.5q225 0 345 -143t120 -410q0 -266 -118 -404t-347 -138q-232 0 -353.5 139t-121.5 403zM230 1248.5q1 8.5 6 23.5q33 76 78.5 108.5t109.5 32.5t187.5 -44t168.5 -44q28 0 48.5 13t41.5 46q26 40 62 25l16 -6q20 -7 23 -18.5t-8 -34.5 q-33 -75 -78.5 -107.5t-108.5 -32.5q-67 0 -192.5 44t-169.5 44q-26 0 -45 -13.5t-41 -47.5q-15 -23 -26.5 -28t-31.5 3l-20 9q-12 5 -16.5 12t-3.5 15.5zM293 535q0 -205 69.5 -302.5t219.5 -97.5t221 97.5t71 302.5t-71 303t-221 98q-149 0 -219 -97.5t-70 -303.5z" />
<glyph unicode="&#xf6;" horiz-adv-x="1165" d="M113 530q0 266 123 409.5t352 143.5q225 0 345 -143t120 -410q0 -266 -118 -404t-347 -138q-232 0 -353.5 139t-121.5 403zM293 535q0 -205 69.5 -302.5t219.5 -97.5t221 97.5t71 302.5t-71 303t-221 98q-149 0 -219 -97.5t-70 -303.5zM350 1288v105q0 45 90 45 q82 0 82 -45v-105q0 -45 -90 -45q-82 0 -82 45zM645 1288v105q0 45 90 45q82 0 82 -45v-105q0 -45 -90 -45q-82 0 -82 45z" />
<glyph unicode="&#xf7;" horiz-adv-x="1146" d="M98 465v14q0 62 62 62h827q62 0 62 -62v-14q0 -62 -62 -62h-827q-29 0 -45.5 16.5t-16.5 45.5zM487 41v104q0 45 82 45h9q81 0 81 -45v-104q0 -45 -81 -45h-9q-82 0 -82 45zM487 799v104q0 45 82 45h9q81 0 81 -45v-104q0 -45 -81 -45h-9q-82 0 -82 45z" />
<glyph unicode="&#xf8;" horiz-adv-x="1165" d="M113 530q0 96 15.5 175.5t41.5 135.5t63.5 99t78 69.5t89.5 43t93.5 22.5t93.5 6q206 0 323 -112l70 82q16 16 29 16q12 0 28.5 -15.5t16.5 -27.5q0 -13 -13 -29l-79 -92q90 -137 90 -373q0 -133 -28.5 -232.5t-73 -157t-108.5 -92.5t-124 -46.5t-131 -11.5 q-207 0 -322 100l-59 -70q-16 -16 -29 -16t-30 15.5t-17 27.5q0 11 14 29l64 76q-96 133 -96 378zM291 535q0 -157 37 -244l473 549q-71 94 -219 94q-143 0 -217 -92.5t-74 -306.5zM375 215q69 -78 207 -78q144 0 218 92t74 306q0 145 -32 227z" />
<glyph unicode="&#xf9;" horiz-adv-x="1140" d="M154 319v711q0 45 82 45h8q82 0 82 -45v-694q0 -94 55 -146.5t154 -52.5q69 0 138 39t120 105v749q0 45 81 45h9q82 0 82 -45v-727q0 -47 2.5 -90t6 -71t7 -49.5t6 -33.5t2.5 -14q0 -25 -38 -36t-72 -11q-10 0 -18.5 4.5t-15 15t-11.5 18.5t-9.5 25.5t-6.5 25.5t-6 28.5 t-5 25.5q-65 -72 -149.5 -112.5t-170.5 -40.5q-157 0 -245 88t-88 243zM330 1473q0 26 98 26q96 0 127 -53q78 -136 98.5 -174.5t20.5 -52.5q0 -21 -47 -21q-71 0 -105 37q-30 34 -76 87q-80 91 -98 114t-18 37z" />
<glyph unicode="&#xfa;" horiz-adv-x="1140" d="M154 319v711q0 45 82 45h8q82 0 82 -45v-694q0 -94 55 -146.5t154 -52.5q69 0 138 39t120 105v749q0 45 81 45h9q82 0 82 -45v-727q0 -47 2.5 -90t6 -71t7 -49.5t6 -33.5t2.5 -14q0 -25 -38 -36t-72 -11q-10 0 -18.5 4.5t-15 15t-11.5 18.5t-9.5 25.5t-6.5 25.5t-6 28.5 t-5 25.5q-65 -72 -149.5 -112.5t-170.5 -40.5q-157 0 -245 88t-88 243zM489 1219q0 14 20.5 52.5t98.5 174.5q31 53 127 53q99 0 99 -26q0 -18 -106 -138q-52 -60 -87 -100q-34 -37 -104 -37q-48 0 -48 21z" />
<glyph unicode="&#xfb;" horiz-adv-x="1140" d="M154 319v711q0 45 82 45h8q82 0 82 -45v-694q0 -94 55 -146.5t154 -52.5q69 0 138 39t120 105v749q0 45 81 45h9q82 0 82 -45v-727q0 -47 2.5 -90t6 -71t7 -49.5t6 -33.5t2.5 -14q0 -25 -38 -36t-72 -11q-10 0 -18.5 4.5t-15 15t-11.5 18.5t-9.5 25.5t-6.5 25.5t-6 28.5 t-5 25.5q-65 -72 -149.5 -112.5t-170.5 -40.5q-157 0 -245 88t-88 243zM324 1208q0 16 12 37l115 180q29 45 94 45h51q65 0 94 -45l117 -180q12 -18 12 -35q0 -30 -49 -30h-4q-39 0 -68 26l-129 152l-125 -152q-29 -26 -69 -26h-4q-47 0 -47 28z" />
<glyph unicode="&#xfc;" horiz-adv-x="1140" d="M154 319v711q0 45 82 45h8q82 0 82 -45v-694q0 -94 55 -146.5t154 -52.5q69 0 138 39t120 105v749q0 45 81 45h9q82 0 82 -45v-727q0 -47 2.5 -90t6 -71t7 -49.5t6 -33.5t2.5 -14q0 -25 -38 -36t-72 -11q-10 0 -18.5 4.5t-15 15t-11.5 18.5t-9.5 25.5t-6.5 25.5t-6 28.5 t-5 25.5q-65 -72 -149.5 -112.5t-170.5 -40.5q-157 0 -245 88t-88 243zM338 1288v105q0 45 90 45q82 0 82 -45v-105q0 -45 -90 -45q-82 0 -82 45zM633 1288v105q0 45 90 45q82 0 82 -45v-105q0 -45 -90 -45q-82 0 -82 45z" />
<glyph unicode="&#xfd;" horiz-adv-x="985" d="M37 1040q0 35 88 35h16q69 0 82 -33l209 -555q38 -103 66 -206h4q59 186 67 206l205 555q11 33 84 33h6q82 0 82 -35q0 -10 -6 -28l-526 -1395q-17 -43 -97 -43h-30q-68 0 -68 33q0 8 10 35l172 415l-358 957q-6 18 -6 26zM412 1219q0 14 21.5 55.5t96.5 171.5 q31 53 127 53q99 0 99 -26q0 -18 -106 -138q-52 -60 -87 -100q-34 -37 -104 -37q-47 0 -47 21z" />
<glyph unicode="&#xfe;" horiz-adv-x="1167" d="M174 -381v1876q0 45 82 45h8q82 0 82 -45v-551q142 139 311 139q182 0 290 -153t108 -398q0 -258 -114 -401t-302 -143q-157 0 -293 104v-473q0 -45 -82 -45h-8q-82 0 -82 45zM346 231q112 -92 254 -92q136 3 205 100t69 281q0 199 -65 306.5t-186 107.5 q-69 0 -142 -36.5t-135 -104.5v-562z" />
<glyph unicode="&#xff;" horiz-adv-x="985" d="M37 1040q0 35 88 35h16q69 0 82 -33l209 -555q38 -103 66 -206h4q59 186 67 206l205 555q11 33 84 33h6q82 0 82 -35q0 -10 -6 -28l-526 -1395q-17 -43 -97 -43h-30q-68 0 -68 33q0 8 10 35l172 415l-358 957q-6 18 -6 26zM260 1288v105q0 45 90 45q82 0 82 -45v-105 q0 -45 -90 -45q-82 0 -82 45zM555 1288v105q0 45 90 45q82 0 82 -45v-105q0 -45 -90 -45q-82 0 -82 45z" />
<glyph unicode="&#x152;" horiz-adv-x="2091" d="M117 721q0 358 161 541.5t470 183.5q293 0 450 -168v94q0 62 62 62h720q41 0 41 -62v-33q0 -61 -41 -61h-602v-467h541q41 0 41 -61v-33q0 -62 -41 -62h-541v-499h604q41 0 41 -62v-33q0 -61 -41 -61h-722q-32 0 -47 14.5t-15 46.5v99q-156 -172 -450 -172 q-308 0 -469.5 187t-161.5 546zM303 721q0 -282 114 -430t331 -148t331.5 148t114.5 430q0 281 -114 425t-332 144t-331.5 -144t-113.5 -425z" />
<glyph unicode="&#x153;" horiz-adv-x="1783" d="M113 530q0 266 123 409.5t352 143.5q208 0 325 -120q120 120 336 120q210 0 316 -136t106 -398q0 -20 -24.5 -52t-42.5 -32h-648q12 -171 88 -250.5t228 -79.5q61 0 118.5 13.5t91 29.5t59 29.5t30.5 13.5q20 0 45.5 -41t25.5 -61q0 -25 -47.5 -55.5t-135.5 -53 t-185 -22.5q-239 0 -359 114q-117 -114 -327 -114q-232 0 -353.5 139t-121.5 403zM293 535q0 -205 69.5 -302.5t219.5 -97.5q167 0 241 96q-51 117 -51 297q0 184 55 306q-77 102 -245 102q-149 0 -219 -97.5t-70 -303.5zM956 612h533q0 324 -246 324q-266 0 -287 -324z" />
<glyph unicode="&#x178;" horiz-adv-x="1144" d="M37 1403q0 35 94 35h23q68 0 88 -31l336 -504l344 506q18 29 92 29h14q80 -3 80 -35q0 -9 -16 -37l-430 -637v-688q0 -45 -82 -45h-17q-82 0 -82 45v694l-428 631q-16 22 -16 37zM340 1651v104q0 45 90 45q82 0 82 -45v-104q0 -45 -90 -45q-82 0 -82 45zM635 1651v104 q0 45 90 45q82 0 82 -45v-104q0 -45 -90 -45q-82 0 -82 45z" />
<glyph unicode="&#x2c6;" d="M74 1208q0 16 12 37l115 180q29 45 94 45h51q65 0 94 -45l117 -180q12 -18 12 -35q0 -30 -49 -30h-4q-38 0 -67 26l-130 152l-124 -152q-29 -26 -70 -26h-4q-47 0 -47 28z" />
<glyph unicode="&#x2dc;" horiz-adv-x="747" d="M21 1248.5q1 8.5 6 23.5q33 76 78.5 108.5t109.5 32.5t187.5 -44t168.5 -44q28 0 49 13t42 46q15 23 29 28t32 -3l16 -6q20 -7 23 -18.5t-8 -34.5q-33 -75 -78.5 -107.5t-108.5 -32.5q-67 0 -192.5 44t-169.5 44q-26 0 -45 -13.5t-41 -47.5q-15 -23 -26.5 -28t-31.5 3 l-20 9q-12 5 -16.5 12t-3.5 15.5z" />
<glyph unicode="&#x2000;" horiz-adv-x="932" />
<glyph unicode="&#x2001;" horiz-adv-x="1864" />
<glyph unicode="&#x2002;" horiz-adv-x="932" />
<glyph unicode="&#x2003;" horiz-adv-x="1864" />
<glyph unicode="&#x2004;" horiz-adv-x="621" />
<glyph unicode="&#x2005;" horiz-adv-x="466" />
<glyph unicode="&#x2006;" horiz-adv-x="310" />
<glyph unicode="&#x2007;" horiz-adv-x="310" />
<glyph unicode="&#x2008;" horiz-adv-x="233" />
<glyph unicode="&#x2009;" horiz-adv-x="372" />
<glyph unicode="&#x200a;" horiz-adv-x="103" />
<glyph unicode="&#x2010;" d="M90 532v21q0 61 41 61h387q41 0 41 -61v-21q0 -61 -41 -61h-387q-41 0 -41 61z" />
<glyph unicode="&#x2011;" d="M90 532v21q0 61 41 61h387q41 0 41 -61v-21q0 -61 -41 -61h-387q-41 0 -41 61z" />
<glyph unicode="&#x2012;" d="M90 532v21q0 61 41 61h387q41 0 41 -61v-21q0 -61 -41 -61h-387q-41 0 -41 61z" />
<glyph unicode="&#x2013;" horiz-adv-x="1024" d="M0 532v21q0 61 41 61h942q41 0 41 -61v-21q0 -61 -41 -61h-942q-41 0 -41 61z" />
<glyph unicode="&#x2014;" horiz-adv-x="2048" d="M0 532v21q0 61 41 61h1966q41 0 41 -61v-21q0 -61 -41 -61h-1966q-41 0 -41 61z" />
<glyph unicode="&#x2018;" horiz-adv-x="434" d="M119 1112q0 87 23 165.5t57 128t69 78.5t62 29q59 0 59 -30q0 -13 -18 -49q-70 -134 -70 -314q0 -30 -21 -47.5t-61 -17.5h-18q-38 0 -60 15.5t-22 41.5z" />
<glyph unicode="&#x2019;" horiz-adv-x="434" d="M66 1116q0 13 18 49q70 140 70 314q0 30 21 47.5t61 17.5h18q38 0 60 -15.5t22 -41.5q0 -87 -23 -165.5t-57 -128.5t-69 -79t-62 -29q-59 0 -59 31z" />
<glyph unicode="&#x201a;" horiz-adv-x="405" d="M25 -207q0 13 18 49q70 140 70 314q0 30 21 47.5t61 17.5h18q38 0 60 -15.5t22 -41.5q0 -87 -23 -165.5t-57 -128.5t-69 -79t-62 -29q-59 0 -59 31z" />
<glyph unicode="&#x201c;" horiz-adv-x="716" d="M82 1112q0 87 23 165.5t57 128t69 78.5t62 29q59 0 59 -30q0 -13 -18 -49q-70 -134 -70 -314q0 -30 -21 -47.5t-61 -17.5h-18q-38 0 -60 15.5t-22 41.5zM367 1112q0 87 23 165.5t57 128t69 78.5t62 29q59 0 59 -30q0 -11 -19 -49q-69 -132 -69 -314q0 -30 -21 -47.5 t-61 -17.5h-18q-38 0 -60 15.5t-22 41.5z" />
<glyph unicode="&#x201d;" horiz-adv-x="716" d="M70 1116q0 13 18 49q70 140 70 314q0 30 21 47.5t61 17.5h18q38 0 60 -15.5t22 -41.5q0 -87 -23 -165.5t-57 -128.5t-69 -79t-62 -29q-59 0 -59 31zM354 1116q0 11 19 49q69 138 69 314q0 30 21 47.5t61 17.5h19q38 0 60 -15.5t22 -41.5q0 -87 -23 -165.5t-57 -128.5 t-69 -79t-62 -29q-60 0 -60 31z" />
<glyph unicode="&#x201e;" horiz-adv-x="688" d="M25 -207q0 13 18 49q70 140 70 314q0 30 21 47.5t61 17.5h18q38 0 60 -15.5t22 -41.5q0 -87 -23 -165.5t-57 -128.5t-69 -79t-62 -29q-59 0 -59 31zM309 -207q0 11 19 49q69 138 69 314q0 30 21 47.5t61 17.5h19q38 0 60 -15.5t22 -41.5q0 -87 -23 -165.5t-57 -128.5 t-69 -79t-62 -29q-60 0 -60 31z" />
<glyph unicode="&#x2022;" horiz-adv-x="688" d="M86 668q0 107 74.5 182.5t181.5 75.5t182.5 -75.5t75.5 -182.5t-75.5 -181.5t-182.5 -74.5t-181.5 74.5t-74.5 181.5z" />
<glyph unicode="&#x2026;" horiz-adv-x="1263" d="M104 41v135q0 45 82 45h35q82 0 82 -45v-135q0 -45 -82 -45h-35q-82 0 -82 45zM532 41v135q0 45 82 45h35q82 0 82 -45v-135q0 -45 -82 -45h-35q-82 0 -82 45zM958 41v135q0 45 82 45h35q82 0 82 -45v-135q0 -45 -82 -45h-35q-82 0 -82 45z" />
<glyph unicode="&#x202f;" horiz-adv-x="372" />
<glyph unicode="&#x2039;" horiz-adv-x="614" d="M94 528q0 24 27 58l266 319q22 25 45 25q21 0 46.5 -21t25.5 -45q0 -17 -17 -41l-227 -295l227 -297q17 -24 17 -38q0 -20 -24 -44t-48 -24q-21 0 -45 27l-266 319q-27 35 -27 57z" />
<glyph unicode="&#x203a;" horiz-adv-x="614" d="M111 193q0 16 16 38l227 297l-227 295q-16 22 -16 41q0 24 25 45t46 21q23 0 45 -25l267 -319q26 -33 26 -58q0 -24 -26 -57l-267 -319q-24 -27 -45 -27q-24 0 -47.5 24t-23.5 44z" />
<glyph unicode="&#x205f;" horiz-adv-x="466" />
<glyph unicode="&#x20ac;" horiz-adv-x="1228" d="M0 545v14q0 62 41 62h100q-2 31 -2 96q0 63 2 94h-100q-41 0 -41 61v15q0 61 41 61h117q40 246 195 372t395 126q132 0 241 -42t109 -85q0 -26 -25.5 -68.5t-44.5 -42.5q-4 0 -27.5 14t-55 31t-87 31t-115.5 14q-167 0 -268 -82.5t-135 -267.5h569q41 0 41 -61v-15 q0 -61 -41 -61h-585q-2 -31 -2 -96t2 -94h585q41 0 41 -62v-14q0 -62 -41 -62h-569q34 -178 136.5 -263t250.5 -85q67 0 130 16t99.5 35.5t64.5 35.5t34 16q19 0 45 -41.5t26 -61.5q0 -28 -49.5 -62t-141 -59.5t-192.5 -25.5q-514 0 -589 495h-113q-41 0 -41 62z" />
<glyph unicode="&#x2122;" horiz-adv-x="1581" d="M61 1380v19q0 35 23 35h541q22 0 22 -35v-19q0 -34 -22 -34h-217v-697q0 -24 -48 -24h-8q-47 0 -47 24v697h-221q-23 0 -23 34zM721 649v762q0 25 45 25h43q37 0 47 -21l219 -379l29 -71l31 65l217 385q14 21 49 21h39q45 0 45 -25v-762q0 -24 -45 -24h-8q-48 0 -48 24 v621h-6l-225 -404q-8 -14 -25 -14h-47q-16 0 -24 14l-230 410h-6v-627q0 -24 -47 -24h-8q-45 0 -45 24z" />
<glyph unicode="&#x25fc;" horiz-adv-x="1075" d="M0 0v1075h1075v-1075h-1075z" />
</font>
</defs>
</svg>
